<svg width="596" height="596" viewBox="0 0 596 596" fill="none" xmlns="http://www.w3.org/2000/svg">
<g clip-path="url(#clip0)">
<path d="M298 42C223.561 42 163 102.561 163 177C163 251.439 223.561 312 298 312C372.439 312 433 251.439 433 177C433 102.561 372.439 42 298 42Z" fill="#5F5F5F"/>
<path d="M465.966 481.997C429.006 391.718 380.009 342 328 342H268C215.992 342 166.994 391.718 130.034 481.997C93.255 571.834 73 690.419 73 815.915C73 835.844 79.716 852 88 852H508C516.284 852 523 835.844 523 815.915C523 690.419 502.745 571.834 465.966 481.997Z" fill="#5F5F5F"/>
</g>
<defs>
<clipPath id="clip0">
<rect width="512" height="512" fill="white" transform="translate(42 42)"/>
</clipPath>
</defs>
</svg>
