<svg width="596" height="600" viewBox="0 0 596 600" fill="none" xmlns="http://www.w3.org/2000/svg">
<path d="M298 0C211.348 0 140.852 70.4968 140.852 157.148C140.852 243.8 211.348 314.297 298 314.297C384.652 314.297 455.148 243.8 455.148 157.148C455.148 70.4968 384.652 0 298 0Z" fill="#5F5F5F"/>
<path d="M493.523 416.961C450.499 373.276 393.464 349.219 332.922 349.219H263.078C202.538 349.219 145.501 373.276 102.477 416.961C59.664 460.432 36.0859 517.813 36.0859 578.539C36.0859 588.182 43.9038 596 53.5469 596H542.453C552.096 596 559.914 588.182 559.914 578.539C559.914 517.813 536.336 460.432 493.523 416.961Z" fill="#5F5F5F"/>
</svg>
