<svg width="673" height="375" viewBox="0 0 673 375" fill="none" xmlns="http://www.w3.org/2000/svg">
<g style="mix-blend-mode:overlay">
<path d="M543.888 256.018C607.741 256.018 659.504 208.993 659.504 150.985C659.504 92.9767 607.741 45.9519 543.888 45.9519C480.036 45.9519 428.273 92.9767 428.273 150.985C428.273 208.993 480.036 256.018 543.888 256.018Z" fill="#E3DEA8" fill-opacity="0.9"/>
</g>
<path fill-rule="evenodd" clip-rule="evenodd" d="M462.836 81.2968C462.988 82.4895 464.612 81.5786 464.764 82.2251C464.859 82.6314 463.188 83.6395 462.827 83.9171C463.992 84.5572 465.479 83.0826 466.352 82.4647C466.801 82.9098 466.954 83.1436 466.54 83.6528C465.812 84.5518 465.845 83.3606 464.978 83.9862C465.339 84.5392 465.656 84.2223 466.114 84.0735C465.915 85.1377 466.362 84.4641 466.712 85.1381C466.997 85.6862 466.962 86.0913 467.047 86.7034C466.635 87.5655 466.224 88.4279 465.812 89.2899C465.318 90.327 465.465 90.6603 464.254 90.3136C464.39 90.0985 465.296 89.0465 465.223 88.7879C465.139 88.4923 463.9 88.0834 463.573 87.8351C462.997 87.3984 463.004 87.0238 462.636 86.5547C462.782 86.1183 462.669 85.9143 462.295 85.9436C462.158 86.2808 462.021 86.6176 461.883 86.9548C461.917 87.6723 462.582 87.6051 462.974 88.2906C463.575 89.3395 463.238 88.7204 462.748 89.5645C462.266 90.3937 462.212 91.4522 461.419 91.8691C461.845 92.0396 462.271 92.2101 462.697 92.3802C461.703 93.3749 463.77 92.8905 464.112 92.794C463.762 93.4711 463.412 94.1481 463.063 94.8251C462.015 94.2904 461.498 93.2765 460.8 92.4393C460.269 93.3395 459.738 94.24 459.206 95.1406C459.735 95.0959 460.264 95.0517 460.792 95.0071C460.718 95.1341 460.041 96.0052 460.099 96.199C460.335 96.9889 462.134 96.5434 461.936 97.5767C461.91 97.7091 460.297 99.1917 460.021 99.3347C460.831 99.6665 461.198 99.5289 460.907 100.4C460.531 100.193 460.155 99.9858 459.779 99.7783C459.458 100.303 459.087 100.815 458.883 101.389C458.922 101.765 458.849 102.121 458.662 102.457C458.44 102.758 458.191 103.039 457.913 103.299C457.693 103.828 457.622 106.711 457.887 107.181C458.479 106.485 459.801 107.715 457.569 107.715C456.592 107.715 456.658 107.529 456.284 108.312C455.991 108.928 455.832 109.465 456.665 109.524C456.038 110.649 456.172 111.516 456.116 112.715C456.07 113.686 455.771 114.651 455.55 115.604L456.145 114.825C456.679 115.864 456.272 116.739 456.018 117.851C455.463 117.183 455.395 118.375 454.921 118.251C453.953 118 454.678 117.814 454.285 117.236C453.944 116.735 453.979 116.591 453.349 116.284C452.513 115.878 451.048 115.863 450.103 115.72C448.513 115.478 446.921 115.417 445.313 115.353C439.293 115.115 433.294 115.054 427.275 115.356C421.737 115.634 416.066 116.342 410.635 117.301C404.854 118.321 399.2 119.263 393.601 120.989C392.519 121.323 391.436 122.019 390.355 122.264C389.328 122.496 388.3 122.493 387.23 122.832C384.669 123.643 382.019 124.257 379.437 125.031C376.656 125.865 373.646 126.561 370.998 127.716C369.849 128.217 368.805 128.897 367.655 129.405C366.573 129.884 364.752 130.321 364.18 131.426C363.957 131.857 363.995 132.17 364.134 132.616C364.411 133.513 364.631 133.416 365.385 133.355C366.435 133.27 367.794 132.526 368.814 132.233C371.605 131.431 374.43 130.789 377.268 130.147C382.365 128.993 387.483 126.95 392.513 126.151C395.496 125.677 398.323 124.389 401.322 123.902C401.98 123.795 403.885 122.939 404.426 123.235C404.569 123.313 404.919 124.253 405.043 124.478C405.486 125.285 405.994 126.064 406.588 126.787C408.381 128.966 410.786 130.722 412.933 132.6C415.385 134.745 417.516 137.112 419.778 139.415C419.975 139.207 420.171 138.999 420.367 138.792C420.16 140.246 421.355 141.295 422.332 142.283C423.491 143.456 424.424 144.559 425.338 145.896C426.088 146.993 427.047 147.954 427.895 148.953C428.728 149.936 429.283 151.123 430.05 152.183C431.81 154.616 433.543 157.097 435.318 159.498C436.154 160.629 436.814 161.9 437.476 163.187C438.001 164.208 439.58 166.296 439.58 167.286C439.467 167.771 440.621 170.69 439.387 169.315C439.191 169.592 438.994 169.87 438.796 170.148C439.134 170.019 439.471 169.89 439.808 169.761C438.784 170.607 440.697 170.715 440.739 171.188C440.568 171.338 440.398 171.488 440.228 171.638C439.937 172.185 439.558 172.255 439.092 171.85C438.579 171.879 438.476 171.617 437.904 171.792C438.45 172.569 439.154 172.078 439.431 173.153C439.678 174.112 438.882 174.308 438.056 174.885L438.037 174.898L438.027 174.93C437.857 175.445 437.346 175.234 436.776 175.126C435.433 174.874 433.949 174.391 432.641 174.019C429.814 173.216 426.966 172.538 424.043 171.988C417.375 170.734 410.76 170.793 404.031 170.396C404.208 169.724 404.209 169.783 403.999 169.367C404.269 169.901 402.643 169.204 403.868 170.383C400.742 170.85 397.364 170.499 394.193 170.654C394.341 170.354 394.68 170.01 394.363 169.793C392.862 171.772 387.845 170.923 385.365 171.207C383.909 171.373 382.47 171.692 381.019 171.903C380.308 172.006 379.589 172.096 378.892 172.268C378.25 172.425 377.182 173.072 376.574 172.922C377.464 171.287 376.438 172.702 376.298 172.721C375.875 172.778 375.148 172.908 374.541 172.908C375.233 170.375 376.42 168.041 376.898 165.432C377.196 163.805 378.015 161.186 376.251 160.033C375.285 159.401 373.701 159.265 372.582 159.05C371.356 158.814 369.212 158.824 368.145 158.192C367.312 157.698 367.136 157.244 366.044 156.867C364.785 156.431 364.204 155.998 362.932 156.35C363.45 155.76 364.175 155.329 363.159 154.725C362.743 154.478 361.927 154.81 361.781 154.27C361.027 154.756 361.206 155.148 361.004 155.813C361.022 156.095 361.104 156.363 361.248 156.618L360.051 157.058C360.305 156.436 359.561 156.807 359.412 156.501C359.191 156.045 359.322 155.348 359.322 154.852C358.5 155.089 357.64 155.382 357.28 156.162C356.273 155.615 356.673 155.578 357.189 154.756C356.344 154.574 356.165 154.971 356.036 155.609C355.59 155.483 355.143 155.358 354.698 155.232C355.703 155.226 355.945 154.51 355.968 153.732C355.577 153.848 355.186 153.964 354.795 154.08C354.714 154.456 354.634 154.833 354.554 155.209C353.937 155.685 352.334 154.826 351.814 154.579C350.001 153.722 349.338 153.475 349.593 151.527C349.807 149.894 350.28 148.254 350.385 146.613C350.502 144.79 350.269 142.841 350.093 141.024C349.754 137.507 349.207 134.042 349.015 130.511C348.912 128.6 348.796 126.687 348.714 124.775C348.649 123.254 348.073 121.581 350.153 121.446C349.899 120.71 350.661 119.859 351.447 119.456C351.722 118.885 352.022 118.834 352.349 119.303C352.633 119.384 352.896 119.346 353.14 119.188C354.285 118.951 355.659 117.469 356.688 116.935C357.696 116.411 359.894 115.65 360.614 114.768C361.31 113.915 360.257 114.011 360.47 113.229C360.761 112.16 361.819 113.695 361.981 113.909C362.334 113.585 363.685 112.978 363.669 112.507L362.677 112.345C363.038 112.155 363.84 111.587 364.26 111.512C364.975 111.384 364.707 111.219 365.28 111.937C365.479 111.655 365.963 110.731 366.266 110.543C366.411 110.454 367.271 110.394 367.452 110.336C368.388 110.034 368.293 109.37 368.981 109.055C369.315 108.902 369.726 109.137 370.006 109.025C370.454 108.847 370.455 108.238 370.861 108.017C371.213 107.825 372.104 107.984 372.524 107.845C373.219 107.614 373.188 107.398 373.707 106.975C374.435 106.383 375.104 106.469 375.915 106.02C376.755 105.555 376.626 104.507 377.388 104.307C378.406 104.04 378.666 104.919 379.22 104.051C379.345 103.856 378.78 103.565 379.134 103.252C379.571 102.867 379.752 103.326 379.952 103.626C380.183 103.229 380.413 102.833 380.643 102.437C381.751 102.99 381.286 102.277 382.131 101.897C382.506 101.728 382.816 102.061 383.227 101.857C383.529 101.708 383.582 101.382 383.799 101.18C384.216 100.793 384.447 100.26 385.094 100.075C384.86 100.142 386.776 100.091 386.605 100.017C386.419 99.7672 386.232 99.5178 386.046 99.2683C387.048 99.2683 387.924 99.3591 388.894 99.0845C389.238 98.9876 389.774 98.8381 390.06 98.639C390.845 98.0916 390.668 98.2251 390.668 97.2197C391.751 97.8483 393.13 97.6286 394.199 96.8997C394.757 96.519 395.115 96.0636 395.727 95.7196C395.99 95.5956 396.257 95.4796 396.528 95.3721C396.868 95.0517 397.208 95.0486 397.549 95.3633C398.031 95.2455 398.025 95.1642 398.399 94.951C398.506 94.758 398.62 94.5684 398.742 94.3827C399.143 94.3445 399.538 94.2785 399.928 94.1847C401.441 93.8136 402.354 92.8928 403.759 93.7087C403.938 93.3749 404.118 93.0408 404.297 92.7067C404.895 93.558 405.304 92.7448 406.097 92.4C406.429 92.2555 406.861 92.2196 407.162 92.0876C407.331 92.1239 407.5 92.1605 407.669 92.1971C407.813 91.7928 407.956 91.3885 408.099 90.9842C408.388 91.0868 409.534 91.6479 409.878 91.6181C410.372 91.5758 410.962 90.8141 411.44 90.6703C412.17 90.4509 411.908 90.7408 412.625 90.7454C413.176 90.7488 413.435 90.8202 413.911 90.3983C412.303 90.0173 414.332 89.8376 415.01 89.7087C416.067 89.5081 416.611 89.7224 417.345 88.9615H416.583C417.335 88.3379 417.082 88.5579 417.873 88.619C418.123 88.6377 419.207 89.1804 419.209 88.4565C420.232 89.0061 420.243 89.0073 421.298 88.7593C421.765 88.6495 422.162 88.2921 422.675 88.2837C423.176 88.2757 423.535 88.482 423.982 88.4378C424.249 88.4118 425.185 88.0918 425.501 87.9869C426.003 87.8203 426.333 87.4644 426.813 87.3267C427.341 87.1745 428.013 87.3553 428.568 87.2443C430.217 86.9132 431.185 86.0131 432.971 86.5005C433.162 85.0431 435.154 85.3673 436.226 85.5176C436.973 85.6225 437.353 85.8979 438.126 85.5645C438.755 85.2933 439.113 84.8631 439.814 84.6464C440.351 84.4801 441.075 84.3592 441.636 84.2532C441.982 84.1532 442.337 84.1212 442.699 84.1574C443.075 84.2056 443.389 84.3588 443.639 84.6163L443.658 84.6367L443.663 84.6292C443.743 84.4992 444.518 83.974 444.467 84.0127L444.467 84.013L444.5 83.9893C445.105 83.563 445.396 83.7139 445.776 82.8358C445.326 82.7492 444.875 82.6623 444.424 82.5757C445.12 82.5329 445.643 82.4597 446.262 82.7065C446.69 82.877 447.41 83.7806 447.838 83.7814C448.613 83.7821 448.885 82.7862 448.808 82.2679C449.458 83.649 450.013 83.879 451.474 83.173L451.989 82.9239C452.337 82.5917 452.682 82.5978 453.026 82.9426C453.23 83.0441 453.434 83.1451 453.639 83.2466C453.884 82.8739 454.129 82.5017 454.375 82.129C454.897 82.7835 455.392 82.8156 456.242 82.6626C456.828 82.557 458.031 81.5885 458.463 81.5889C458.714 81.5889 459.034 82.1458 459.452 82.2545C460.143 82.4353 461.218 81.9806 461.465 81.3772C461.596 81.629 461.726 81.8811 461.857 82.1332C462.184 81.8548 462.512 81.5771 462.836 81.2968ZM438.015 174.894L438.014 174.915L438.037 174.898L438.037 174.897L438.015 174.894ZM437.166 173.579V174.752L437.602 174.825L438.015 174.894L438.017 174.864C438.05 174.282 437.732 173.853 437.166 173.579ZM398.67 168.913C398.534 169.293 398.398 169.673 398.263 170.053C398.72 170.087 399.178 170.121 399.636 170.155C399.313 169.741 398.992 169.327 398.67 168.913ZM344.943 138.859C345.944 139.125 345.93 139.093 346.131 139.937C347.273 144.739 343.738 150.247 346.333 154.811C338.746 154.755 331.144 154.893 323.601 155.704C323.601 153.089 323.695 150.48 323.478 147.869C323.38 146.684 323.233 145.503 323.101 144.321C322.933 142.821 322.986 142.908 324.333 142.65C325.04 142.514 325.293 142.105 325.969 141.856C326.477 141.669 326.704 141.899 327.205 141.964C328.1 142.079 328.11 141.942 328.93 141.782C330.69 141.44 332.185 141.562 333.576 140.364C334.296 140.307 334.063 140.916 334.565 140.857C334.931 140.813 335.163 140.191 335.536 140.043C336.695 139.58 338.625 139.693 339.893 139.549C341.189 139.402 342.336 138.869 343.576 138.711C344.087 138.646 344.459 138.73 344.943 138.859ZM362.878 153.892C363.31 154.108 363.442 153.554 363.666 153.216C363.183 152.997 363.112 153.507 362.878 153.892ZM361.54 150.279C361.709 150.819 361.696 151.232 361.696 151.789C362.696 151.66 363.01 151.594 363.028 150.624L362.494 150.931C362.214 150.425 362.152 150.385 361.54 150.279ZM353.806 151.182C354.032 151.049 354.259 150.916 354.485 150.783C354.151 150.345 353.558 150.866 353.806 151.182ZM356.334 143.124C356.622 142.986 356.912 142.848 357.2 142.71C356.451 141.838 356.396 142.131 356.334 143.124ZM355.289 136.211H354.153C354.375 136.877 355.289 137.021 355.289 136.211ZM466.611 97.4653C466.871 97.6034 467.13 97.7415 467.39 97.8792C466.715 98.4395 465.886 99.0044 466.543 99.6612C467.065 100.183 469.5 100.431 470.23 100.621C469.977 100.887 469.455 101.612 469.11 101.795C468.836 101.939 468.587 101.367 468.035 101.937C468.95 102.37 468.705 102.042 468.467 102.959C468.327 103.501 467.825 104.082 467.543 104.567C466.855 105.749 466.151 106.922 465.429 108.087C463.948 110.475 462.39 112.823 460.752 115.125C460.476 113.825 461.266 112.368 461.675 111.114C462.191 109.536 462.707 107.958 463.226 106.381C464.227 103.342 465.125 100.334 466.611 97.4653ZM426.874 101.431C426.134 101.603 425.649 101.715 424.884 101.893C425.996 102.216 425.996 102.216 426.874 101.431ZM459.641 95.5727C458.697 95.9755 458.596 96.2681 459.36 96.7609C459.451 96.3775 459.517 96.0964 459.641 95.5727ZM459.526 86.0413C459.398 86.5528 458.605 86.0607 458.429 86.4345C458.027 87.2897 459.306 87.1737 459.767 87.1223C459.687 86.7618 459.606 86.4017 459.526 86.0413ZM464.875 85.3921C464.622 86.4857 464.622 86.4857 465.792 86.65C465.484 86.229 465.227 85.8758 464.875 85.3921ZM443.658 84.6367C443.653 84.6494 443.656 84.6565 443.669 84.6578L443.678 84.6579L443.658 84.6367ZM358.244 153.175L358.245 153.17C358.271 153.014 359.39 154.364 359.325 154.32C359.909 154.721 360.249 154.683 360.91 154.223C359.726 154.182 359.857 153.516 359.579 152.719C359.331 153.559 358.233 152.441 358.243 153.144L358.244 153.175Z" fill="#FF5678"/>
<path fill-rule="evenodd" clip-rule="evenodd" d="M295.75 199.176C295.572 200.009 295.129 200.401 295.593 201.165C295.988 201.815 297.119 202.24 297.878 202.076L295.75 199.176ZM275.178 169.56L271.432 170.73C272.456 171.646 273.432 172.609 274.56 173.422L275.178 169.56ZM336.958 172.558C335.172 171.737 333.171 171.644 331.213 171.539C331.51 173.005 331.809 174.471 332.107 175.937C333.724 174.811 335.342 173.684 336.958 172.558ZM294.064 286.03C293.708 285.454 291.277 281.007 290.771 281.236C290.503 281.357 290.482 283.832 290.443 284.184C290.304 285.437 290.164 286.689 290.025 287.942C291.463 287.479 292.999 287.095 294.064 286.03ZM277.076 250.079C277.444 251.062 277.812 252.044 278.18 253.027C278.355 253.495 278.457 254.184 278.767 254.596C279.169 255.131 278.866 255.446 279.402 254.86C279.979 254.231 280.151 252.554 280.401 251.783C280.782 250.613 281.161 249.443 281.541 248.273C279.75 248.259 278.665 249.603 277.076 250.079ZM239.441 192.202C237.239 193.574 235.01 194.935 233.094 196.641C234.779 196.545 237.126 197.603 238.714 197.106C239.447 197.249 239.689 196.995 239.441 196.344V194.992V192.202ZM272.094 201.91V209.922C274.15 208.325 276.314 206.841 278.292 205.161C276.226 204.077 274.161 202.994 272.094 201.91ZM345.597 222.671C344.948 226.238 344.912 229.909 344.735 233.519C344.703 234.159 344.433 235.124 344.901 235.685C345.37 236.248 346.709 236.559 347.389 236.86C349.303 237.706 351.204 238.576 353.112 239.432C350.607 233.845 348.102 228.258 345.597 222.671ZM394.188 200.734C398.91 198.618 403.631 196.502 408.353 194.385C403.724 192.598 399.094 190.812 394.465 189.025C394.373 192.928 394.28 196.831 394.188 200.734ZM345.587 210.697C346.45 210.754 346.587 207.757 346.729 206.964C347.001 205.46 347.28 203.957 347.565 202.454C348.137 199.451 348.738 196.452 349.371 193.459C350.636 187.474 352.031 181.511 353.577 175.581C351.915 175.308 350.389 175.112 348.766 174.671C347.455 174.314 345.895 174.508 344.725 173.767C344.573 176.546 345.334 179.5 345.615 182.279C345.941 185.494 346.117 188.692 346.088 191.922C346.031 198.18 345.77 204.441 345.587 210.697ZM236.909 295.495C237.727 295.296 236.613 285.069 236.564 283.594C236.421 279.324 236.394 275.051 236.477 270.78C232.069 273.3 227.558 275.622 222.901 277.715C224.098 279.131 225.219 280.657 226.544 281.975C227.909 283.332 229.474 284.443 230.739 285.905C233.285 288.847 235.029 292.188 236.909 295.495ZM342.996 234.994C343.2 231.918 343.39 228.849 343.731 225.781C343.876 224.476 345.26 217.541 343.044 217.704C341.784 217.796 339.574 219.478 338.419 220.067C336.893 220.845 335.365 221.621 333.831 222.387C330.805 223.899 327.758 225.378 324.721 226.872C330.813 229.579 336.904 232.287 342.996 234.994ZM329.844 171.03C327.321 170.858 324.882 170.687 322.393 170.259C321.051 170.028 319.709 170.06 318.36 169.904C317.393 169.792 315.505 169.069 314.604 169.305C313.473 169.603 313.062 174.772 312.907 176.069C312.656 178.158 312.487 180.693 313.511 182.656C315.484 186.44 320.799 183.486 323.386 181.899C325.602 180.538 328.114 179.16 330.08 177.508C331.822 176.045 330.258 172.921 329.844 171.03ZM342.928 212.176C344.829 211.475 344.799 210.595 344.882 208.781C344.982 206.578 345.041 204.372 345.11 202.168C345.233 198.24 345.349 194.311 345.311 190.38C345.273 186.541 345.067 182.708 344.585 178.893C344.415 177.544 344.584 175.24 343.805 174.089C343.093 173.039 340.884 173.028 339.679 173.093C338.32 173.166 337.219 174.343 336.217 175.086C335.106 175.911 332.824 177.071 332.642 178.3C332.438 179.672 333.265 181.63 333.585 182.962C334.757 187.82 336.183 192.63 337.685 197.411C339.243 202.371 340.821 207.381 342.928 212.176ZM294.631 200.547C294.754 199.456 295.199 198.544 294.597 197.504C294.079 196.61 293.237 195.712 292.604 194.865C290.793 192.441 288.761 190.119 286.788 187.803C284.981 185.682 283.129 183.583 281.235 181.526C280.18 180.381 279.092 179.26 278.011 178.135C277.219 177.312 276.469 176.154 275.349 175.723C274.523 180.452 273.841 185.201 273.309 189.965C273.052 192.267 272.831 194.573 272.644 196.882C272.592 197.533 272.037 199.734 272.392 200.34C272.765 200.978 275.042 201.831 275.74 202.221C277.689 203.314 279.204 204.96 281.058 203.164C282.335 201.927 283.362 200.184 284.789 199.105C285.532 198.543 286.232 198.569 287.066 198.235C288.035 197.848 288.066 197.474 289.224 198.002C291.176 198.89 292.361 200.203 294.631 200.547ZM196.928 224.876C196.928 228.15 196.682 230.841 199.116 233.492C201.243 235.808 203.453 236.343 206.445 237.257C208.206 237.795 208.329 237.299 209.757 236.391C211.113 235.528 212.59 234.836 213.928 233.945C216.812 232.027 219.693 230.048 222.496 228.03C223.438 227.351 223.299 227.583 223.156 226.769C223.025 226.027 222.441 225.082 222.122 224.377C221.545 223.1 220.864 221.865 220.184 220.631C219.411 219.232 218.738 217.713 217.778 216.408C217.38 215.867 216.907 215.377 216.443 214.884C215.464 213.844 215.499 213.883 214.329 214.732C211.858 216.526 209.56 218.468 206.78 219.871C203.49 221.53 200.209 223.202 196.928 224.876ZM271.413 199.517C271.77 194.817 272.173 190.143 272.79 185.465C273.108 183.063 273.477 180.667 273.837 178.27C273.983 177.294 274.548 175.655 274.233 174.707C273.924 173.774 272.56 172.886 271.811 172.21C271.609 172.029 270.991 171.267 270.725 171.233C270.44 171.197 269.368 171.913 269.058 172.074C267.965 172.646 266.891 173.247 265.833 173.872C263.84 175.051 261.909 176.316 260.02 177.629C256.057 180.381 252.278 183.342 248.4 186.191C251.953 189.03 256.327 191.235 260.3 193.535C262.649 194.894 265.01 196.239 267.402 197.536C268.615 198.193 270.021 199.197 271.413 199.517ZM222.838 283.561C219.968 285.291 217.228 287.117 213.983 288.227C210.753 289.332 207.56 289.757 204.221 290.414C202.537 290.746 200.955 291.108 199.236 291.34C198.273 291.47 196.783 291.42 195.904 291.79C195.123 291.639 194.844 291.882 195.069 292.52C195.078 292.718 195.086 292.916 195.095 293.115C195.316 295.874 197.261 299.193 198.957 301.436C199.947 302.746 201.209 303.965 202.463 305.066C203.878 306.309 204.695 307.185 206.668 306.664C209.994 305.786 212.93 304.019 216.301 303.24C218.968 302.624 221.183 301.332 223.784 300.663C226.991 299.838 230.165 298.899 233.417 298.21C231.965 295.653 230.666 292.992 228.806 290.65C226.899 288.247 224.796 285.938 222.838 283.561ZM240.436 197.543C246.437 198.632 252.941 199.64 258.312 202.465C260.407 203.567 263.064 205.271 263.678 207.551C264.412 210.275 261.527 211.963 259.117 212.814C256.224 213.835 253.075 214.226 250.009 214.548C248.386 214.719 246.756 214.812 245.126 214.896C243.806 214.965 241.569 214.7 240.363 215.177C239.607 215.04 239.345 215.319 239.577 216.015C239.563 216.265 239.549 216.515 239.535 216.765L239.41 219.012C239.327 220.508 239.244 222.004 239.16 223.5C238.979 226.759 238.797 230.018 238.616 233.277C241.759 231.501 244.292 228.959 247.364 227.065C248.824 226.164 250.274 225.262 251.729 224.364C252.339 223.988 252.712 223.461 253.312 223.11C254.108 222.645 254.814 222.366 255.561 221.757C258.61 219.27 262.002 217.12 265.236 214.837C266.706 213.8 268.314 212.846 269.712 211.734C271.176 210.568 270.974 209.608 270.938 207.933C270.9 206.159 271.614 203.956 271.283 202.245C271.561 201.665 271.348 201.304 270.643 201.162C270.172 200.887 269.701 200.612 269.23 200.338C268.291 199.79 267.352 199.242 266.412 198.695C262.676 196.517 258.94 194.338 255.204 192.16C253.338 191.071 251.472 189.983 249.605 188.895C249.084 188.591 247.384 187.218 246.799 187.259C246.202 187.3 245.167 188.362 244.72 188.7C244.034 189.218 243.368 189.763 242.627 190.216C242.257 190.45 241.872 190.658 241.47 190.841C240.828 190.898 240.605 191.219 240.8 191.806C240.236 193.455 240.546 195.811 240.436 197.543ZM323.65 275.295C322.291 269.503 320.538 262.645 315.238 258.705C309.863 254.709 302.005 256.253 297.8 260.945C295.694 263.296 294.388 266.074 293.419 268.954C292.423 271.909 290.956 275.76 291.224 278.885C291.342 280.255 292.63 281.728 293.365 282.923C294.125 284.158 294.629 285.928 296.418 285.5C299.193 284.837 302.015 283.314 304.612 282.225C307.238 281.122 310.004 280.215 312.727 279.15C314.535 278.443 316.412 277.905 318.216 277.188C319.926 276.509 322.183 276.345 323.65 275.295ZM403.943 240.798C407.733 242.035 409.703 240.055 412.37 237.826C414.896 235.714 417.633 233.683 419.96 231.388C422.359 229.022 424.256 226.225 426.101 223.492C427.966 220.73 430.487 217.746 431.635 214.67C432.219 213.105 432.469 211.371 432.837 209.753C432.925 209.364 433.52 207.915 433.331 207.587C433.071 207.137 431.416 207.089 430.962 207.023C427.345 206.502 423.513 206.476 419.885 206.942C412.867 207.844 406.997 211.433 404.779 217.708C402.178 225.064 403.428 233.24 403.943 240.798ZM379.368 176.992C379.309 178.266 382.658 178.62 383.526 178.917C385.531 179.603 387.526 180.327 389.473 181.139C393.484 182.81 397.76 183.899 401.601 185.92C409.879 190.276 418.867 193.347 427.23 197.514C428.533 198.163 431.08 199.727 432.568 199.595C433.359 199.525 432.77 200.105 433.283 198.959C433.468 198.546 433.529 198.01 433.632 197.567C433.942 196.243 434.182 194.906 434.53 193.588C435.103 191.42 435.688 189.408 435.929 187.18C436.032 186.235 436.144 185.292 436.156 184.342C436.168 183.38 436.412 180.968 435.935 180.134C435.619 179.581 435.556 179.771 434.766 179.615C434.313 179.526 433.838 179.34 433.402 179.216C432.377 178.925 431.352 178.646 430.278 178.561C429.216 178.476 428.539 178.182 427.544 178.011C426.5 177.831 425.427 178.049 424.363 177.799C423.215 177.528 422.667 177.281 421.467 177.385C420.304 177.485 419.969 177.25 418.83 176.961C417.879 176.72 416.746 176.888 415.755 176.815C414.556 176.726 413.36 176.589 412.16 176.503C406.763 176.113 401.303 176.691 395.893 176.645C392.952 176.62 390.074 177.016 387.137 176.894C384.57 176.787 381.916 176.812 379.368 176.992ZM393.407 202.925C390.782 203.837 388.348 205.317 385.914 206.592C383.107 208.063 380.421 209.625 377.823 211.388C373.456 214.354 368.36 217.909 367.21 223.083C366.031 228.393 371.089 232.744 375.831 234.917C381.239 237.394 387.53 238.675 393.454 239.621C392.821 227.397 392.97 215.153 393.407 202.925ZM314.871 231.704C313.278 232.105 311.93 232.965 310.452 233.601C309.129 234.17 307.848 234.6 306.612 235.333C304.598 236.528 302.263 237.551 300.157 238.475C294.946 240.761 289.887 243.6 284.728 246.133C283.361 246.805 282.913 247.229 282.45 248.611C281.947 250.113 281.473 251.624 280.988 253.131C280.536 254.536 279.815 256.038 280.005 257.522C280.171 258.812 280.903 260.029 281.455 261.206C282.844 264.168 284.351 267.083 285.908 269.975C287.304 272.571 288.579 275.325 290.372 277.711C291.766 271.084 293.016 263.659 298.418 258.61C303.816 253.564 312.428 253.492 317.629 258.701C320.1 261.175 321.604 264.292 322.787 267.423C323.407 269.068 323.825 270.744 324.224 272.443C324.651 274.258 324.546 275.221 326.742 274.671C328.486 274.234 330.335 273.886 332.045 273.387C332.932 273.129 333.797 272.839 333.837 272.2C333.888 271.393 332.697 269.741 332.345 268.982C330.528 265.065 328.711 261.147 326.893 257.229C324.92 252.975 322.946 248.721 320.972 244.467C319.987 242.345 319.002 240.223 318.017 238.1C317.118 236.166 316.37 233.293 314.871 231.704ZM393.555 198.622C393.584 196.688 393.619 194.754 393.647 192.819C393.664 191.666 394.227 189.437 393.126 188.614C392.443 188.104 390.418 187.712 389.555 187.363C387.851 186.674 386.006 186.367 384.292 185.682C377.579 183.001 370.593 180.768 363.682 178.608C362.192 178.142 360.668 177.76 359.168 177.301C358.358 177.054 355.358 175.599 354.609 175.98C353.953 176.313 353.458 180.279 353.248 181.103C352.75 183.053 352.275 185.008 351.818 186.966C350.044 194.568 348.556 202.224 347.172 209.893C350.848 208.62 354.372 206.415 357.845 204.71C361.454 202.939 365.049 201.172 368.682 199.442C369.708 198.954 373.315 196.709 374.159 197.59C375.513 199.004 372.287 200.662 371.439 201.268C368.163 203.611 364.702 205.653 361.198 207.697C357.567 209.815 353.788 211.687 350.139 213.766C348.821 214.517 346.718 215.431 346.2 216.699C345.534 218.33 346.015 220.312 346.622 221.87C348.111 225.699 349.742 229.481 351.467 233.226C352.251 234.93 353.056 236.625 353.875 238.314C354.851 240.326 356.132 240.751 358.258 241.677C367.317 245.62 376.727 249.363 385.428 253.927C383.971 255.457 380.422 252.945 378.985 252.308C376.324 251.13 373.66 249.955 371 248.773C366.046 246.571 361.116 244.325 356.134 242.176C359.327 248.798 363.096 255.178 367.274 261.325C366.219 261.651 366.476 261.668 365.814 261.089C365.256 260.602 364.882 259.648 364.504 259.036C363.723 257.772 362.953 256.504 362.166 255.243C360.533 252.627 358.842 250.05 357.351 247.363C356.23 245.342 355.361 241.809 353.057 240.791C350.186 239.52 347.277 238.284 344.406 236.996C344.406 247.064 345.199 256.908 346.364 266.914C346.423 267.418 346.953 268.907 345.884 268.762C345.401 268.696 345.239 265.935 345.154 265.358C344.765 262.716 344.435 260.066 344.165 257.411C343.628 252.114 343.335 246.795 343.298 241.475C342.609 246.647 341.92 251.82 341.231 256.992L340.251 264.345C340.08 265.632 339.908 266.92 339.737 268.207C339.658 268.799 339.708 269.572 339.48 270.136C339.121 271.023 339.242 270.955 338.118 271.36C339.192 264.625 340.185 257.878 341.063 251.118C341.492 247.82 341.894 244.519 342.264 241.215C342.363 240.327 342.461 239.438 342.556 238.549C342.604 238.096 343.033 236.639 342.795 236.263C342.56 235.89 340.998 235.501 340.548 235.31C339.564 234.894 338.579 234.478 337.596 234.059C334.403 232.698 331.213 231.327 328.055 229.9C326.674 229.275 325.225 228.311 323.723 227.978C322.227 227.646 321.14 228.595 319.861 229.199C318.865 229.668 316.521 230.293 315.856 231.091C315.237 231.833 317.159 234.804 317.664 235.899C319.087 238.988 320.511 242.078 321.935 245.168C324.822 251.432 327.71 257.697 330.597 263.962C331.303 265.493 332.009 267.024 332.714 268.556C333.167 269.537 333.922 272.334 335.019 272.443C335.505 272.491 336.302 272.01 336.771 271.871C337.472 271.665 338.118 271.668 338.821 271.559C340.109 271.36 341.446 270.754 342.711 270.33C345.961 269.237 349.33 268.532 352.607 267.512C355.898 266.487 359.136 265.335 362.415 264.31C365.392 263.379 368.397 262.319 371.258 261.106C374.278 259.826 377.377 258.697 380.32 257.277C385.682 254.692 390.985 252.277 395.722 249.106C396.836 248.36 398.022 247.611 399.124 246.813C400.09 246.112 401.933 245.247 402.591 244.326C402.842 243.975 403.057 243.286 402.764 242.869C402.45 242.421 401.059 242.462 400.408 242.382C398.358 242.131 396.308 241.88 394.258 241.629C394.416 242.858 394.575 244.086 394.689 245.32C394.769 246.191 395.334 248.493 394.572 249.175C393.525 248.268 393.862 245.556 393.768 244.347C393.718 243.702 393.898 242.438 393.581 241.865C393.233 241.237 392.273 241.245 391.402 241.074C387.711 240.345 384.053 239.734 380.481 238.581C374.446 236.632 367.233 233.341 365.885 226.994C364.48 220.378 370.654 214.645 375.853 210.955C378.966 208.746 382.278 206.833 385.702 205.057C387.303 204.227 388.903 203.397 390.514 202.585C391.1 202.29 393.024 201.682 393.333 201.165C393.65 200.637 393.488 199.224 393.555 198.622ZM264.446 300.236C264.153 300.366 263.86 300.496 263.568 300.627C266.824 292.165 270.051 283.741 272.774 275.12C274.089 270.959 275.42 266.803 276.779 262.653C277.366 260.864 278.807 258.399 278.407 256.545C277.974 254.538 276.935 252.404 276.13 250.495C270.984 253.445 265.729 256.244 260.496 259.06C255.805 261.585 251.035 263.831 246.311 266.33C243.89 267.61 241.393 268.475 238.867 269.521C236.814 270.371 237.611 272.969 237.641 274.705C237.745 280.834 237.74 286.984 238.147 293.104C238.296 295.334 238.104 297.894 239.661 299.749C241.652 302.122 243.498 304.54 245.314 307.038C245.994 307.973 248.852 313.039 249.918 312.928C250.613 312.856 251.254 310.805 251.602 310.318C252.352 309.27 253.448 308.368 254.447 307.524C258.757 303.877 263.54 301.309 268.512 298.644C273.562 295.936 278.731 293.416 283.877 290.849C285.04 290.269 286.292 289.85 287.447 289.258C287.903 289.024 288.808 288.652 289.095 288.233C289.525 287.607 289.379 285.872 289.469 285.123C289.652 283.594 289.981 282.005 289.999 280.464C290.016 278.942 289.013 277.634 288.285 276.307C285.091 270.479 281.989 264.638 279.21 258.634C277.019 265.606 274.719 272.544 272.57 279.526C271.448 283.172 270.095 286.758 268.779 290.348C268.106 292.181 267.43 294.013 266.758 295.847C266.235 297.275 265.964 299.366 264.446 300.236ZM310.314 168.847C308.621 168.865 307.086 168.638 305.43 168.315C304.823 168.197 304.289 168.147 303.673 168.098C302.975 168.042 302.341 167.697 301.729 167.629C301.266 167.579 300.458 167.756 300.017 167.891C298.993 168.204 299.025 168.046 298.982 169.13C298.916 170.804 298.865 172.48 298.765 174.153C298.368 180.74 297.6 187.263 296.549 193.786C296.336 195.104 295.74 196.834 296.068 198.143C296.363 199.324 297.482 200.585 298.221 201.575C299.741 203.611 303.32 204.617 305.838 205.195C308.493 205.804 311.25 206.028 313.773 206.571C314.472 206.722 315.274 206.457 316.019 206.608C316.708 206.747 317.243 207.092 317.88 207.341C319.44 207.952 321.183 208.065 322.794 208.536C325.988 209.471 329.409 209.415 332.606 210.313C333.423 210.542 334.13 211.12 334.916 211.318C335.635 211.499 336.376 211.286 337.128 211.387C338.723 211.601 340.21 212.098 340.577 213.659C341.553 212.955 341.688 213.14 341.52 212.052C341.412 211.354 340.985 210.504 340.752 209.831C340.157 208.115 339.559 206.401 338.964 204.685C337.788 201.29 336.62 197.892 335.536 194.472C334.565 191.413 333.684 188.33 332.913 185.224C332.521 183.644 332.193 182.058 331.858 180.47C331.76 180.009 331.857 179.277 331.349 178.97C330.888 178.692 329.813 179.69 329.327 180.012C325.928 182.256 318.134 188.894 313.886 184.978C311.598 182.87 311.731 179.163 311.98 176.438C312.132 174.764 312.455 173.111 312.815 171.465C312.905 171.054 313.456 169.735 313.255 169.442C313.037 169.127 310.768 168.94 310.314 168.847ZM429.717 205.485C430.622 205.577 431.526 205.67 432.43 205.763C432.347 205.096 432.422 204.094 432.145 203.474C431.762 202.616 430.826 202.52 429.795 202.165C428.166 201.603 426.503 201.114 424.892 200.509C421.393 199.197 417.912 197.866 414.411 196.553C412.877 195.978 411.075 195.036 409.409 195.506C407.612 196.013 405.839 197.046 404.16 197.802C402.259 198.659 400.358 199.518 398.458 200.376C397.567 200.779 396.676 201.181 395.785 201.584C394.384 202.217 394.198 202.281 394.088 203.725C393.525 211.114 393.567 218.79 393.812 226.189C393.938 229.965 393.797 233.761 394.094 237.53C394.117 237.82 394.093 239.456 394.292 239.679C394.573 239.993 396.546 240.099 397.017 240.178C398.856 240.485 400.707 240.586 402.564 240.738C402.127 232.144 400.519 221.984 405.36 214.122C410.222 206.225 420.616 204.514 429.717 205.485ZM345.188 120.935C345.733 119.803 346.672 118.847 347.474 117.854C347.908 117.317 348.659 116.675 348.936 116.046C349.332 115.152 349.33 115.344 348.739 114.561C348.18 113.821 348.192 113.765 347.328 113.633C346.601 113.521 345.827 113.711 345.084 113.589C344.333 113.466 342.27 112.89 342.743 111.8C342.722 111.848 343.916 111.311 344.009 111.218C344.309 110.92 344.404 110.285 344.552 109.925C345.029 108.771 345.196 108.024 344.665 106.795C343.871 104.96 340.733 104.417 338.779 105.034C337.802 105.342 337.245 105.996 336.807 106.818C336.528 107.34 336.463 108.094 336.102 108.548C335.558 109.232 335.525 109.156 334.397 109.035C332.962 108.881 331.785 108.379 330.425 108.028C328.943 107.646 327.98 108.423 326.686 109.05C324.349 110.182 322.092 110.575 319.474 110.755C316.559 110.955 313.857 110.314 310.971 110.149C311.72 113.294 313.657 115.847 315.205 118.695C315.476 119.195 315.916 119.707 315.927 120.287C315.937 120.833 315.071 121.575 315.168 122.027C315.377 122.99 317.702 123.761 318.584 124.033C321.076 124.799 323.913 126.299 326.656 125.696C328.16 125.366 328.969 123.201 330.384 123.042C332.283 122.828 330.862 125.057 330.51 125.823C333.204 126.197 336.62 125.88 339.199 125.047C340.491 124.63 341.587 124.007 342.766 123.39C344.235 122.621 344.541 122.409 345.188 120.935ZM298.035 167.739C293.231 167.812 288.357 167.182 283.542 167.761C282.427 167.895 281.326 168.111 280.23 168.34C279.442 168.506 276.94 168.645 276.415 169.179C275.936 169.666 275.933 171.909 275.834 172.541C275.614 173.948 275.673 174.434 276.657 175.522C279.896 179.103 283.269 182.577 286.461 186.198C289.526 189.675 292.043 193.561 295.141 196.99C296.796 192.598 296.895 187.327 297.35 182.722C297.592 180.266 297.812 177.809 298.019 175.351C298.216 173.009 298.887 169.971 298.035 167.739ZM235.857 214.028C236.412 214.028 237.298 214.187 237.838 214.028C238.581 214.243 238.829 213.989 238.583 213.266C238.595 213.013 238.607 212.76 238.619 212.507C238.696 210.875 238.782 209.244 238.864 207.613C238.941 206.122 239.015 204.63 239.079 203.138C239.123 202.12 239.688 199.595 239.236 198.676C238.933 198.057 238.215 198.198 237.341 198.107C236.51 198.021 235.676 197.942 234.849 197.825C233.8 197.675 232.637 197.333 231.569 197.547C230.497 197.763 229.717 198.666 228.875 199.24C227.543 200.148 226.182 201.023 224.839 201.917C222.398 203.543 219.981 205.198 217.56 206.848C216.56 207.53 216.368 207.293 216.855 208.273C217.157 208.877 217.843 209.562 218.26 210.109C219.091 211.197 219.919 212.847 220.986 213.731C222.537 215.016 226.843 214.2 228.904 214.191C231.254 214.18 233.52 214.213 235.857 214.028ZM241.94 213.921C243.978 213.74 246.037 213.818 248.063 213.568C250.265 213.296 252.451 212.894 254.649 212.592C256.841 212.292 263.507 211.077 262.849 208.095C262.154 204.943 257.05 203.055 254.226 201.995C249.816 200.34 245.212 199.454 240.573 198.519C239.991 201.344 240.075 204.378 239.968 207.241C239.911 208.796 239.86 210.353 239.861 211.91C239.861 212.284 239.72 213.062 239.888 213.41C240.282 214.23 240.74 213.921 241.94 213.921ZM235.237 215.275H222.229C224.154 218.909 225.974 222.61 228.049 226.175C230.116 229.726 232.778 233.072 235.123 236.48C235.717 235.891 236.664 235.252 237.068 234.55C237.515 233.775 237.503 232.633 237.576 231.735C237.766 229.403 237.853 227.052 237.917 224.715C237.973 222.669 238.072 220.636 238.245 218.595C238.282 218.147 238.824 215.821 238.514 215.439C238.237 215.099 235.806 215.279 235.237 215.275ZM288.813 143.935C291.007 143.934 293.204 143.909 295.399 143.943C297.39 143.974 299.984 143.657 301.808 144.592C305.525 146.496 298.096 151.387 296.59 152.617C299.025 153.422 302.827 151.825 305.211 151.093C308.16 150.188 311.166 149.58 314.174 148.872C314.925 148.695 318.151 148.348 318.558 147.823C318.962 147.303 318.057 144.162 317.966 143.499C317.881 142.876 317.953 141.905 317.668 141.319C317.843 140.615 317.572 140.369 316.855 140.58C316.607 140.579 316.36 140.578 316.113 140.577C314.283 140.591 312.451 140.668 310.623 140.723C304.338 140.914 298.205 141.169 291.974 142.063C289.077 142.479 286.154 142.99 283.272 143.501C280.846 143.93 281.254 144.29 283.52 144.296C285.292 144.3 287.049 144.06 288.813 143.935ZM469.11 101.795C469.483 101.404 469.857 101.013 470.23 100.621C469.32 100.384 468.41 100.147 467.5 99.9102C466.533 99.6585 466.012 99.7161 466.442 98.7305C466.981 97.4958 469.443 97.3543 470.626 97.3078C474.699 97.1472 478.978 98.3288 482.848 99.3698C484.736 99.8778 486.216 100.664 487.813 101.709C488.511 102.166 489.316 102.595 489.926 103.143C490.561 103.713 490.825 104.443 491.445 105.014C492.462 105.951 493.763 106.418 494.262 107.77C494.834 109.322 494.151 111.099 493.304 112.452C492.444 113.825 491.168 114.864 490.131 116.112C489.309 117.102 487.59 119.808 490.275 119.494C491.695 119.328 493.537 117.12 494.559 116.241C496.023 114.98 497.464 113.689 499.015 112.514C500.391 111.473 501.976 110.405 503.815 110.222C505.754 110.029 506.722 111.16 507.667 112.536C508.558 113.833 508.701 115.1 509.328 116.428C509.63 117.069 510.015 117.426 510.193 118.124C510.466 119.197 510.495 120.369 510.634 121.463C510.853 123.182 511.059 124.534 510.694 126.219C510.352 127.795 510.259 129.469 509.97 131.073C509.644 132.89 509.373 134.714 509.051 136.532C508.779 138.071 507.742 140.263 508.759 141.695C511.201 145.135 514.131 140.071 514.903 138.179C516.259 134.854 516.949 131.22 518.146 127.827C518.787 126.013 519.346 124.181 519.714 122.303C520.018 120.749 519.868 118.857 520.802 117.473C521.528 116.398 522.819 115.582 524.236 115.91C526.008 116.321 526.69 118.657 527.211 120.078C528.588 123.824 528.081 127.198 527.521 131.019C527.261 132.788 527.014 134.56 526.568 136.299C526.267 137.473 525.022 139.848 526.874 140.487C529.499 141.392 532.281 134.526 533.029 132.975C534.988 128.914 535.738 124.887 536.545 120.535C536.731 119.535 536.872 118.513 537.15 117.53C537.391 116.674 538.112 115.809 538.177 114.953C538.242 114.096 537.62 113.498 538.258 112.657C538.788 111.958 539.746 111.915 540.612 111.909C542.646 111.895 544.592 112.709 546.484 113.3C548.246 113.849 550.851 115.055 552.749 114.667C546.792 109.153 540.85 103.701 533.745 99.4068C530.446 97.4123 527.145 95.4956 523.579 93.8692C519.967 92.2219 515.828 91.1092 511.959 90.1126C509.855 89.5702 507.763 88.9557 505.686 88.3336C503.836 87.7798 501.975 87.6749 500.164 87.0467C496.229 85.6823 491.833 85.1537 487.759 84.1864C485.96 83.7596 484.142 83.3934 482.338 82.9979C480.443 82.5821 477.781 81.8601 475.85 81.9303C474.201 81.9901 473.645 83.713 472.852 84.9115C471.7 86.6512 470.718 88.4587 469.812 90.3144C467.958 94.1164 465.999 98.0443 464.672 102.016C463.944 104.197 463.224 106.381 462.509 108.565C461.889 110.456 460.34 113.184 460.752 115.125C463.803 110.838 466.644 106.386 469.11 101.795ZM327.068 140.503C325.45 140.57 323.831 140.637 322.212 140.704C323.826 145.541 323.601 150.691 323.601 155.704C331.143 154.893 338.746 154.755 346.333 154.811C344.94 152.36 345.48 149.179 345.877 146.553C346.11 145.017 346.239 143.536 346.205 141.986C346.174 140.532 346.633 139.309 344.943 138.859C343.603 138.502 342.755 139.097 341.478 139.368C339.948 139.692 338.282 139.732 336.724 139.908C333.482 140.276 330.357 140.491 327.068 140.503ZM283.607 149.922C288.468 148.693 293.633 149.146 298.518 148.212C297.407 147.287 295.314 147.835 293.838 147.912C292.161 147.999 290.484 148.062 288.807 148.137C287.171 148.21 282.632 148.097 282.042 149.995C282.563 149.971 283.085 149.946 283.607 149.922ZM461.461 81.3879C455.101 81.8967 448.44 81.8177 442.125 82.8297C434.893 83.9884 427.355 84.7154 420.343 86.7576C413.465 88.7612 406.45 90.1637 399.67 92.5163C393.078 94.8033 386.73 97.2364 380.522 100.295C377.484 101.793 374.528 103.38 371.632 105.099C368.804 106.778 365.706 108.154 362.966 109.933C360.527 111.517 358.423 112.97 356.296 114.911C354.023 116.986 351.811 119.117 349.536 121.188C347.637 122.917 348.839 127.142 348.959 129.442C349.126 132.631 349.415 135.774 349.843 138.942C350.251 141.961 350.671 145.205 350.132 148.217C349.906 149.484 349.124 151.671 349.497 152.935C349.796 153.947 351.776 154.69 352.786 155.02C354.022 155.423 355.284 155.253 356.552 155.766C357.968 156.34 359.162 157.056 360.666 157.358C362.52 157.73 364.604 158.042 366.509 158.054C368.271 158.064 370.038 158.584 371.795 158.905C374.652 159.427 377.441 159.589 377.264 162.731C377.058 166.356 375.481 169.466 374.541 172.908C375.812 172.908 376.697 172.982 377.86 172.571C379.218 172.092 380.667 171.964 382.094 171.758C385.246 171.3 388.32 171.154 391.494 170.862C397.307 170.327 403.221 170.391 409.039 170.448C411.984 170.476 415.18 170.684 418.085 171.102C421.065 171.531 424.152 171.799 427.04 172.622C429.476 173.316 431.992 173.789 434.478 174.402C435.598 174.678 436.939 174.902 437.998 175.211C439.532 175.66 440.351 176.615 442.122 176.594C441.624 173.603 440.453 170.829 439.747 167.863C439.01 164.766 437.539 162.026 435.916 159.104C435.192 157.801 434.656 156.418 433.958 155.104C433.181 153.642 432.09 152.43 431.152 151.063C429.234 148.267 427.187 145.577 425.302 142.761C423.657 140.303 421.778 137.946 419.977 135.573C417.998 132.963 415.247 130.994 413 128.6C412.051 127.589 411.149 126.65 410.086 125.722C409.108 124.867 407.719 122.976 406.221 122.888C405.36 122.837 403.869 123.278 403.047 123.515C401.527 123.954 399.914 124.24 398.344 124.627C396.626 125.05 394.937 125.6 393.216 126.002C392.528 126.163 391.71 126.086 391.057 126.268C390.374 126.459 389.829 126.879 389.082 127.071C385.398 128.024 381.737 129.106 378.025 129.973C374.205 130.867 370.325 131.627 366.623 132.892C365.917 133.134 365.131 133.704 364.588 133.33C364.184 133.05 363.923 132.259 364.029 131.797C364.385 130.261 367.08 129.706 368.378 129.089C371.855 127.436 375.31 126.27 379.048 125.148C380.889 124.596 382.723 124.006 384.59 123.529C386.151 123.13 387.775 122.456 389.37 122.252C390.789 122.07 391.797 121.561 393.205 121.109C395.28 120.445 397.414 119.899 399.523 119.331C403.127 118.36 406.948 117.952 410.635 117.301C419.179 115.792 428.049 115.037 436.767 115.13C441.162 115.178 445.759 115.06 450.103 115.72C451.151 115.878 453.352 115.848 454.074 116.705C454.462 117.165 454.252 117.849 454.352 118.348C454.52 119.189 455.023 119.581 455.46 120.348C456.387 116.2 457.453 112.139 458.65 108.052C459.732 104.352 460.734 100.586 462.181 96.9382C463.712 93.0789 465.568 88.987 467.855 85.455C468.327 84.728 469.501 83.5731 469.602 82.7599C469.706 81.9207 468.416 81.2708 467.53 81.1773C465.542 80.9679 463.414 81.3265 461.461 81.3879ZM504.19 140.663C504.837 134.909 506.729 128.889 505.672 123.112C505.225 120.666 504.875 118.332 503.534 116.124C502.855 115.007 502.583 114.187 501.288 114.846C499.977 115.512 498.77 117.158 497.683 118.112C495.686 119.865 493.594 121.671 491.201 122.973C489.317 123.998 485.575 124.97 484.158 122.752C482.809 120.638 484.609 117.688 485.901 115.945C487.38 113.949 490.181 112.101 488.609 109.64C487.933 108.58 486.959 108.302 485.936 107.607C485.05 107.005 484.308 106.225 483.422 105.613C480.855 103.837 478.04 103.077 475.076 102.062C473.707 101.593 473.527 101.153 472.737 102.224C471.878 103.388 471.408 105.019 470.787 106.306C469.544 108.884 468.218 111.326 466.615 113.73C464.997 116.156 463.563 118.69 462.034 121.164C461.457 122.097 460.915 123.046 460.233 123.922C459.861 124.399 459.402 124.824 459.1 125.346C458.654 126.117 458.852 126.82 458.575 127.589C457.376 130.903 455.627 126.276 455.293 125.194C454.913 123.964 453.996 123.005 453.402 121.857C452.911 120.909 452.577 119.501 451.392 119.054C450.421 118.689 449.171 119.19 448.18 119.239C446.361 119.329 444.527 119.195 442.7 119.299C440.991 119.396 439.286 119.545 437.577 119.641C435.867 119.736 434.159 119.473 432.471 119.637C429.443 119.931 426.347 119.884 423.325 120.292C419.779 120.77 416.27 121.281 412.714 121.679C413.54 123.104 415.253 123.721 416.607 124.738C417.817 125.646 418.775 126.695 419.994 127.559C421.232 128.437 421.967 129.734 422.99 130.788C423.993 131.821 424.922 132.687 425.801 133.842C430.043 139.421 434.418 144.794 437.916 150.823C439.687 153.875 441.378 157.14 442.588 160.414C443.886 163.926 444.522 167.692 445.293 171.323C445.677 173.133 445.879 174.661 445.458 176.481C445.347 176.914 445.232 177.347 445.113 177.778C444.744 178.294 444.88 178.629 445.523 178.783C445.899 179.282 446.412 179.47 446.444 180.152C446.469 180.671 446.153 181.272 445.663 181.565C444.717 182.129 444.717 181.367 443.742 181.536C443.376 181.716 443.01 181.896 442.645 182.076C442.452 181.809 442.254 181.544 442.05 181.283C441.428 180.744 440.934 180.793 440.121 180.662C440.534 184.998 439.876 188.869 438.829 193.098C438.325 195.132 437.462 197.122 437.027 199.16C436.542 201.436 437.603 202.472 439.246 203.99C438.829 204.189 438.099 204.404 437.755 204.701C437.208 205.173 437.347 205.231 437.348 205.971C437.349 207.325 437.064 208.659 436.83 209.991C436.399 212.457 436.004 215.009 435.073 217.37C433.381 221.658 430.648 226.111 427.862 229.889C426.304 232.002 424.741 234.404 422.787 236.228C420.827 238.058 418.883 239.905 416.927 241.741C413.077 245.354 408.869 247.851 404.257 250.556C402.431 251.628 400.507 252.802 398.936 254.136C397.34 255.492 395.216 256.441 393.308 257.426C392.457 257.865 391.851 258.496 390.932 258.857C390.069 259.195 389.465 259.306 388.741 259.75C386.945 260.851 385.004 261.793 383.026 262.624C380.612 263.637 378.238 264.815 375.76 265.68C374.631 266.074 373.568 266.503 372.475 266.964C371.291 267.463 370.015 267.79 368.801 268.321C367.775 268.77 366.736 269.031 365.692 269.398C364.839 269.698 364.17 270.183 363.3 270.497C361.494 271.147 359.851 271.497 358.096 272.264C355.765 273.283 353.002 273.758 350.546 274.491C347.804 275.31 344.96 276.125 342.146 276.705C340.949 276.952 339.929 277.275 338.773 277.649C338.019 277.893 337.155 278.027 336.321 278.258C334.015 278.899 331.709 279.517 329.391 280.062C324.861 281.128 320.233 282.407 315.84 283.853C313.537 284.611 311.201 285.523 308.991 286.489C306.493 287.579 303.801 288.209 301.294 289.289C296.451 291.375 291.624 293.523 286.837 295.713C284.323 296.863 281.845 298.048 279.39 299.3C278.5 299.753 277.526 299.941 276.641 300.386C275.484 300.968 274.534 301.823 273.349 302.4C268.781 304.625 264.118 306.72 259.922 309.535C257.726 311.008 255.367 312.516 253.469 314.31C252.843 314.901 251.758 315.817 251.644 316.676C251.478 317.946 251.634 316.778 252.116 317.561C252.784 317.635 252.935 317.869 252.571 318.263C252.403 318.447 252.187 318.542 251.925 318.545C251.081 318.701 249.503 317.886 248.825 317.545C247.65 316.955 247.026 316.208 246.271 315.217C244.632 313.066 243.033 310.896 241.345 308.776C239.827 306.869 238.341 304.77 236.613 303.019C235.442 301.832 235.354 302.35 234.051 303.02C233.082 303.517 231.956 303.73 230.952 304.199C227.125 305.986 222.917 307.306 218.992 308.552C218.098 308.836 217.621 309.286 216.835 309.678C215.835 310.177 214.567 310.421 213.497 310.776C210.549 311.753 207.616 312.768 204.688 313.796C202.428 314.59 200.257 315.216 198.488 316.682C197.784 317.266 196.931 317.684 196.204 318.274C195.358 318.96 194.213 320.077 193.147 320.465L192.497 320.927C192.058 320.649 191.618 320.371 191.178 320.094C190.741 319.818 190.304 319.543 189.868 319.267C188.773 318.573 187.686 317.869 186.598 317.167C184.131 315.572 181.647 313.993 179.351 312.192C175.274 308.996 171.043 305.97 166.779 302.976C162.304 299.833 157.941 296.545 153.312 293.591C149.117 290.914 144.54 288.653 140.473 285.827C138.425 284.405 136.383 282.973 134.293 281.596C134.179 281.521 132.478 280.569 132.461 280.464C132.432 280.269 132.991 279.761 133.157 279.598C133.939 278.823 134.806 278.132 135.585 277.349C139.218 273.696 143.96 273.824 148.973 273.651C151.247 273.573 153.712 274.529 155.871 275.18C158.511 275.975 161.058 277.143 163.608 278.152C168.864 280.23 174.288 282.006 179.597 283.931C181.685 284.688 183.764 285.057 185.886 285.577C188.04 286.106 190.258 285.602 192.561 285.64C193.756 285.659 194.886 285.723 196.089 285.661C196.804 285.625 197.627 285.501 198.333 285.512C198.905 285.521 199.498 285.736 200.025 285.682C202.328 285.444 204.762 285.11 207.138 284.837C209.497 284.566 211.932 284.431 214.26 284.007C215.432 283.793 216.589 283.491 217.716 283.129C218.695 282.814 220.475 282.457 221.278 281.819C221.997 281.249 221.683 281.241 221.282 280.311C221.123 279.943 220.959 279.386 220.724 279.031C220.089 278.074 219.475 277.773 219.845 276.575C220.496 274.463 222.716 273.115 224.617 272.075C228.898 269.733 232.814 266.729 237.322 264.742C246.611 260.649 255.076 255.332 264.135 250.836C274.092 245.895 283.512 240.096 293.608 235.364C303.005 230.959 312.36 226.528 321.835 222.261C326.462 220.178 331.695 218.272 335.893 215.542C333.567 215.279 331.235 214.939 328.901 214.75C327.818 214.663 326.722 214.744 325.646 214.587C324.442 214.412 323.304 213.968 322.102 213.783C320.036 213.465 318.178 212.819 316.11 212.581C313.893 212.326 311.721 211.731 309.494 211.565C304.834 211.217 300.628 209.65 296.543 207.675C295.532 207.186 294.701 207.466 293.732 207.133C293.198 206.951 292.632 206.22 292.032 205.827C290.381 204.746 288.964 203.47 287.394 202.289C284.095 209.04 277.617 213.631 271.435 218.159C268.304 220.452 264.906 222.396 261.742 224.646C259.29 226.391 257.062 227.953 254.444 229.34C251.931 230.671 249.569 232.469 247.172 234.068C245.548 235.152 243.644 235.97 241.917 236.912C240.505 237.681 237.75 238.828 237.365 240.223C237.05 241.362 237.664 242.719 235.757 242.195C234.049 241.726 232.81 239.997 231.815 238.779C229.243 235.628 226.843 232.369 224.454 229.102C223.171 231.385 220.958 233.03 218.912 234.722C217.669 235.751 216.379 236.705 215.037 237.624C214.386 238.069 213.727 238.506 213.075 238.95C212.818 239.126 212.236 239.395 212.069 239.642C211.68 240.221 211.916 239.959 211.977 240.658C212.072 241.753 212.472 242.614 211.793 243.664C211.154 244.649 209.762 245.07 208.787 245.743C206.466 247.344 204.025 249.046 201.45 250.297C200.866 250.581 200.313 250.827 199.769 251.174C198.86 251.754 199.027 251.964 198.111 251.409C196.679 250.539 195.442 249.096 194.149 248.048C191.442 245.852 188.704 243.684 185.932 241.556C180.647 237.502 175.207 233.649 169.989 229.522C165.03 225.6 159.714 222.224 154.594 218.496C153.189 217.473 151.802 216.43 150.416 215.386C149.182 214.457 147.18 213.434 146.267 212.245C144.941 210.519 150.127 208.16 151.691 207.808C154.389 207.203 157.878 207.549 160.58 208.046C163.416 208.566 166.305 210.308 168.953 211.393C171.938 212.615 174.979 213.672 177.986 214.826C179.328 215.341 180.75 215.752 181.995 216.445C183.316 217.181 184.495 218.019 185.9 218.637C187.519 219.347 189.201 220.01 190.904 220.535C191.675 220.773 192.505 221.013 193.316 221.109C194.464 221.245 194.308 220.763 195.262 220.493C196.072 220.265 196.265 220.869 196.993 221.037C197.679 221.196 198.192 221.035 198.786 220.699C200.111 219.949 201.29 218.916 202.615 218.135C203.844 217.411 205.199 216.734 206.351 215.914C206.865 215.549 207.244 215.048 207.751 214.677C208.562 214.082 208.884 214.318 209.831 213.908C210.605 213.573 211.307 212.949 212.044 212.536C212.501 212.279 213.61 211.955 213.905 211.539C214.68 210.449 213.358 209.691 212.173 210.013C211.996 209.071 211.085 206.835 211.478 205.952C211.827 205.171 212.74 205.317 213.509 204.904C216.397 203.349 218.528 200.524 221.23 198.698C223.778 196.976 226.025 194.92 228.549 193.166C230.71 191.663 233.073 190.196 235.041 188.576C237.368 186.661 240.348 185.17 242.878 183.461C245.491 181.695 247.92 179.729 250.506 177.943C252.994 176.225 255.438 174.43 257.994 172.794C260.292 171.324 262.7 169.981 264.95 168.49C266.182 167.674 267.53 166.957 268.937 166.421C270.336 165.888 271.559 165.263 272.925 164.689C275.64 163.548 279.175 162.759 282.127 162.433C285.372 162.073 288.631 161.751 291.907 161.748C293.653 161.747 295.348 162.05 297.083 162.146C298.677 162.234 300.4 162.602 301.983 162.553C302.699 162.531 303.322 162.255 304.016 162.344C304.596 162.418 305.1 162.737 305.722 162.793C307.106 162.917 308.498 162.793 309.897 162.957C313.113 163.331 316.333 163.865 319.556 164.163C322.989 164.48 326.393 164.54 329.808 165.074C333.146 165.595 336.504 166.135 339.822 166.738C346.874 168.02 354 169.272 360.94 171.174C362.563 171.619 364.195 172.042 365.754 172.652C366.511 172.948 367.238 173.306 368.027 173.527C369.158 173.844 369.38 173.964 369.963 173.099C370.965 171.611 371.517 169.643 372.245 168.023C372.964 166.421 373.837 164.806 374.255 163.133C373.042 162.958 371.512 163.298 370.261 163.337C368.731 163.385 367.218 163.355 365.689 163.346C362.609 163.33 360.201 162.5 357.286 161.629C354.83 160.895 351.559 160.474 349.685 158.793C348.68 157.891 348.346 157.733 346.836 157.894C345.312 158.057 343.808 158.338 342.269 158.385C336.472 158.56 330.701 159.482 324.877 159.665C323.302 159.714 319.361 160.395 319.619 157.958C319.673 157.453 320.098 157.014 320.181 156.493C320.269 155.935 320.116 155.369 320.021 154.824C319.793 153.533 319.554 152.244 319.327 150.953C314.017 152.507 308.64 153.766 303.228 154.997C300.984 155.507 297.379 156.681 295.06 156.037C292.818 155.415 294.116 152.535 294.815 151.157C290.36 152.084 285.61 153.6 281.068 153.947C279.686 154.053 278.341 154.332 278.019 152.809C277.763 151.596 278.725 150.111 279.215 149.045C275.729 148.762 272.12 148.789 272.776 144.715C273.377 140.977 276.782 140.233 280.408 139.551C284.883 138.707 289.453 138.426 293.958 137.744C297.877 137.15 302.153 136.488 306.155 136.787C308.274 136.946 310.405 136.982 312.523 137.161C313.523 137.245 314.484 137.386 315.451 137.635C316.343 137.864 317.591 138.574 318.506 138.586C319.886 138.606 321.55 136.904 323.035 136.511C324.874 136.024 326.856 135.935 328.756 135.816C330.91 135.681 333.067 135.606 335.219 135.447C335.709 135.411 337.564 135.521 337.951 135.259C338.515 134.877 338.14 132.919 338.1 132.115C338.064 131.371 338.221 129.977 337.655 129.685C337.124 129.411 335.575 129.787 335.052 129.863C332.885 130.18 330.825 130.143 328.666 130.063C327.669 130.026 326.711 130.268 325.723 130.149C324.663 130.021 323.597 129.696 322.541 129.515C320.255 129.124 318.172 128.636 316.202 127.468C314.472 126.443 312.426 125.749 311.46 123.954C310.752 122.64 310.464 120.104 312.545 119.73C311.128 117.866 310.15 115.772 309.398 113.618C309.262 113.227 309.172 112.639 308.968 112.299C308.248 111.094 308.916 112.162 307.889 111.681C306.875 111.205 306.144 110.829 305.351 110.001C304.087 108.682 303.555 107.058 303.395 105.339C303.178 103.004 302.774 100.372 303.148 98.0489C303.795 94.0252 307.02 91.0021 310.297 88.5686C312.077 87.2473 314.419 86.7553 316.506 85.9535C318.52 85.1792 320.77 84.3676 322.892 84.186C324.808 84.022 326.676 83.4518 328.593 83.2218C331.229 82.9052 333.867 83.0234 336.516 82.9273C337.735 82.8831 338.951 82.7263 340.165 82.6069C340.85 82.5394 342.009 82.6115 342.636 82.3639C343.663 81.9581 343.108 82.8102 343.475 81.5691C344.173 79.208 344.743 76.9939 345.8 74.6996C346.785 72.5621 347.981 70.5184 349.562 68.691C351.044 66.9769 352.967 65.7232 354.714 64.2589C356.008 63.1741 357.476 62.1942 358.952 61.3169C359.797 60.8154 360.737 60.5442 361.562 60.1013C362.586 59.5521 363.489 59.1356 364.641 58.7992C367.114 58.0775 369.567 57.3112 372.193 57.349C375.024 57.3894 377.862 56.7887 380.618 57.5504C385.736 58.9651 388.243 64.022 388.158 68.6658C389.908 68.2676 391.438 67.501 393.292 67.4354C395 67.3751 397.029 67.5101 398.706 67.7992C401.962 68.3603 405.31 70.0104 407.251 72.511C409.103 74.896 409.38 78.0626 408.242 80.7684C407.697 82.0638 406.833 83.216 405.913 84.3103C405.239 85.1129 403.733 86.0012 403.662 87.0764C416.263 83.6036 428.916 81.1556 441.951 79.5711C448.559 78.7682 455.177 79.1703 461.792 78.7114C464.617 78.5154 467.688 78.7896 470.609 78.7999C471.842 78.8045 472.802 78.6481 473.696 77.9203C474.601 77.1842 475.324 76.2825 476.379 77.3452C476.649 77.6163 476.705 78.2724 477.067 78.4765C477.507 78.7236 478.784 78.5539 479.309 78.5833C481.146 78.6855 482.939 78.9696 484.742 79.2969C488.051 79.8976 491.339 80.5049 494.609 81.2673C500.835 82.7194 506.978 84.1238 513.114 85.8475C519.375 87.6062 525.702 89.7762 531.475 92.6231C534.271 94.002 537.064 95.7233 539.634 97.4291C540.83 98.2224 541.901 99.0806 542.94 100.037C544.052 101.06 545.411 101.75 546.511 102.78C548.906 105.021 551.29 107.398 553.462 109.826C554.596 111.093 555.636 112.43 556.646 113.781C557.354 114.729 559.222 116.464 558.792 117.689C558.563 118.343 557.762 118.8 557.029 118.64C556.784 118.586 556.58 118.296 556.371 118.269C555.663 118.177 556.307 117.95 555.48 118.256C553.838 118.863 553.314 120.082 551.227 119.805C547.68 119.333 544.344 117.806 541.118 116.474C540.197 119.686 540.066 123.015 539.26 126.265C538.473 129.436 537.162 132.46 535.578 135.368C534.19 137.92 532.406 140.639 529.948 142.463C528.072 143.855 523.442 145.583 522.064 142.621C521.479 141.362 522.349 139.407 522.596 138.112C522.927 136.374 523.291 134.632 523.49 132.876C523.652 131.45 523.734 130.016 523.884 128.588C524.014 127.36 524.374 124.723 523.616 123.638C523.16 122.985 523.12 123.626 522.855 124.279C522.532 125.07 522.265 125.855 522.029 126.67C521.528 128.402 521.076 130.146 520.602 131.884C519.756 134.99 518.823 138.028 517.058 140.82C515.491 143.3 513.286 146.02 509.934 146.426C508.365 146.616 506.319 145.962 505.121 144.998C503.777 143.917 504.179 142.133 504.19 140.663Z" fill="white" fill-opacity="0.53"/>
<path fill-rule="evenodd" clip-rule="evenodd" d="M427.655 267.479C429.497 267.148 431.047 265.807 432.552 264.801C434.47 263.516 436.291 262.117 438.153 260.768C441.664 258.226 444.849 255.437 447.878 252.405C453.854 246.423 458.353 238.722 460.398 230.855C461.433 226.874 462.712 222.209 462.125 218.095C461.921 216.666 461.609 216.404 460.072 216.241C459.378 216.168 457.617 215.986 456.992 216.235C455.372 216.88 454.498 219.626 454.017 221.006C452.598 225.081 451.763 229.3 450.481 233.408C449.224 237.434 447.199 241.52 445.196 245.285C440.739 253.663 434.544 260.671 427.655 267.479ZM464.194 221.227C463.093 232.635 459.619 243.504 451.83 252.691C448.128 257.058 443.773 260.857 439.054 264.308C434.181 267.872 429.205 271.228 423.675 273.886C422.204 274.593 420.731 275.298 419.241 275.973C418.415 276.347 416.331 277.725 415.378 277.507C414.615 277.332 414.416 276.794 414.297 276.093C414.03 274.522 415.15 273.737 416.282 272.728C420.831 268.672 425.395 264.603 429.649 260.289C438.05 251.769 444.36 241.567 447.868 230.559C448.949 227.17 449.913 223.743 451.079 220.378C451.79 218.327 452.797 214.678 455.158 213.656C456.424 213.108 457.9 213.641 459.231 213.312C460.48 213.004 461.307 212.376 462.371 213.43C464.239 215.28 464.322 218.908 464.194 221.227Z" fill="white" fill-opacity="0.53"/>
<path fill-rule="evenodd" clip-rule="evenodd" d="M131.386 287.05C130.454 287.351 130.415 287.65 129.988 286.775C129.773 286.334 129.831 285.73 129.881 285.272C130.003 284.175 130.636 283.162 131.156 282.189C136.054 285.873 141.14 289.193 146.392 292.448C152.009 295.928 157.371 299.798 162.684 303.653C167.441 307.106 172.255 310.457 176.962 313.953C179.232 315.64 181.821 316.946 183.979 318.684C185.723 320.089 188.615 320.718 190.102 322.37C187.746 323.654 184.601 324.687 181.99 323.577C179.109 322.352 176.9 320.755 174.337 319.094C173.016 318.239 171.643 317.462 170.301 316.634C169.122 315.906 168.289 314.844 167.095 314.161C164.586 312.726 162.012 311.144 159.631 309.505C157.185 307.822 154.482 306.483 152.122 304.694C149.704 302.86 146.996 301.644 144.471 299.975C139.118 296.436 134.405 292.456 131.386 287.05Z" fill="white" fill-opacity="0.53"/>
<path fill-rule="evenodd" clip-rule="evenodd" d="M275.791 99.1504C275.724 99.4762 275.658 99.8019 275.591 100.128C275.632 100.136 278.835 94.4951 279.365 93.8139C281.165 91.5044 283.507 89.5828 285.765 87.6539C290.547 83.5681 296.145 80.2703 300.831 76.1116C302.373 74.7434 305.136 72.6704 304.526 70.3571C303.92 68.0578 298.803 68.5251 297.05 69.1903C294.303 70.2335 292.072 72.4152 290.024 74.3162C287.791 76.39 285.54 78.4406 283.647 80.7875C281.607 83.3182 279.669 86.0592 278.419 88.9961C277.018 92.2863 276.471 95.6913 275.791 99.1504ZM276.843 109.244C274.669 109.855 277.394 110.268 276.543 111.327C275.609 112.488 274.039 108.911 273.805 108.235C272.421 104.244 273.04 99.3961 273.795 95.3442C274.177 93.3001 274.423 91.2225 274.938 89.2006C275.44 87.229 276.533 85.3554 277.543 83.562C279.565 79.9735 282.242 76.6303 285.281 73.7044C288.328 70.769 291.725 67.832 295.747 66.0248C299.07 64.5323 304.337 65.5679 305.892 68.8279C307.481 72.1593 305.332 75.7882 302.79 78.1305C299.474 81.1853 295.861 84.2196 292.137 86.8537C290.223 88.2077 288.619 89.8452 286.759 91.258C284.78 92.7619 283.068 94.2747 281.604 96.2196C280.187 98.1042 278.728 99.9873 277.807 102.127C276.798 104.469 276.843 106.766 276.843 109.244Z" fill="white" fill-opacity="0.53"/>
<path fill-rule="evenodd" clip-rule="evenodd" d="M189.912 252.905C184.918 249.973 179.907 247.399 175.558 243.66C171.264 239.968 167.513 235.805 162.734 232.602C160.349 231.004 157.888 229.504 155.546 227.853C153.322 226.287 150.767 224.945 148.758 223.158C146.08 220.776 141.065 216.349 144.487 212.797C148.734 217.403 154.561 221.033 159.874 224.529C165.475 228.215 170.617 232.516 175.93 236.532C181.049 240.401 186.15 244.306 191.144 248.277C192.456 249.32 193.721 250.416 195.048 251.443C195.21 251.568 196.586 252.363 196.586 252.574C196.586 253.081 195.52 253.398 195.14 253.539C194.541 253.762 192.919 254.316 192.239 254.128C191.883 254.03 191.877 253.765 191.62 253.608C191.472 253.354 191.3 253.115 191.104 252.89C190.706 252.896 190.309 252.901 189.912 252.905Z" fill="white" fill-opacity="0.53"/>
<path fill-rule="evenodd" clip-rule="evenodd" d="M483.917 201.784C480.356 201.701 474.937 201.691 475.137 206.124C475.235 208.318 476.541 209.93 477.613 211.808C478.739 213.78 479.573 215.818 479.904 218.03C481.24 226.981 477.654 235.725 474.411 244C481.377 238.874 486.407 231.741 489.049 223.923C490.329 220.132 490.828 215.259 490.414 211.311C490.207 209.336 489.408 207.565 488.446 205.805C487.962 204.921 487.479 203.911 486.709 203.195C485.937 202.478 484.867 202.24 483.917 201.784ZM471.498 249.127C469.198 245.678 472.819 240.601 474.003 237.238C475.418 233.218 476.724 229.032 477.329 224.839C477.963 220.447 477.145 217.032 474.912 213.153C472.915 209.684 471.73 205.065 473.95 201.396C474.844 199.919 476.164 199.737 477.733 199.148C479.659 198.425 480.19 197.202 482.553 197.396C486.77 197.741 488.722 201.388 490.29 204.495C493.948 211.738 492.954 221.086 489.834 228.359C488.039 232.544 485.991 236.89 482.943 240.453C481.448 242.201 479.691 243.715 477.868 245.173C475.895 246.75 474.128 248.65 471.498 249.127Z" fill="white" fill-opacity="0.53"/>
<path fill-rule="evenodd" clip-rule="evenodd" d="M230.667 123.371C225.108 124.39 220.034 126.674 219.143 132.371C218.334 137.549 222.202 142.339 226.952 144.762C232.089 147.384 238.526 147.82 243.645 144.914C249.033 141.855 250.256 135.725 246.976 130.915C243.316 125.548 237.186 123.964 230.667 123.371ZM234.24 120.887C240.861 121.771 247.007 126.067 249.237 131.853C251.536 137.818 249.424 144.375 243.337 147.643C231.035 154.248 214.594 143.241 217.563 130.589C218.317 127.376 220.458 124.889 223.366 123.008C226.577 120.931 230.459 120.875 234.24 120.887Z" fill="white" fill-opacity="0.53"/>
<path fill-rule="evenodd" clip-rule="evenodd" d="M469.634 60.3183C461.657 57.0296 453.679 53.741 445.702 50.4523C445.375 53.7494 445.048 57.046 444.72 60.343C444.631 61.2352 444.269 62.4489 444.423 63.3292C444.589 64.2687 444.236 64.1684 445.579 64.0349C447.297 63.8636 449.021 63.4768 450.721 63.2003C453.777 62.7029 457.028 62.561 460.019 61.8295C461.546 61.456 463.008 61.4091 464.557 61.1833C466.259 60.9354 467.915 60.4762 469.634 60.3183ZM442.649 66.6919C442.649 62.9779 443.102 59.314 443.474 55.6172C443.81 52.2912 443.939 49.1208 445.13 45.9519C446.242 47.7938 449.322 48.53 451.228 49.4778C453.855 50.7838 456.652 51.7454 459.34 52.935C461.98 54.1033 464.524 55.4448 467.167 56.6104C468.508 57.2016 469.869 57.7532 471.207 58.349C472.044 58.722 474.03 59.3224 474.551 60.015C476.133 62.1174 470.719 62.3207 469.674 62.5061C466.54 63.0634 463.37 63.3773 460.242 63.9502C457.326 64.4849 454.404 64.9812 451.478 65.466C448.581 65.9458 445.596 66.6919 442.649 66.6919Z" fill="white" fill-opacity="0.53"/>
<path fill-rule="evenodd" clip-rule="evenodd" d="M196.671 158.634C199.812 158.336 202.94 157.907 206.077 157.624C209.048 157.356 211.676 157.071 214.391 155.83C210.684 154.811 206.968 153.846 203.23 152.925C201.376 152.468 199.526 151.985 197.663 151.559C196.222 151.228 194.967 151.038 194.413 149.605C193.768 147.935 195.561 148.188 196.678 148.612C198.219 149.197 199.898 149.561 201.495 150.047C205.06 151.132 208.647 152.13 212.246 153.117C213.364 153.424 219.846 154.558 217.511 156.53C216.511 157.374 214.281 157.837 213.059 158.443C211.492 159.221 209.785 159.53 208.041 159.84C204.407 160.484 200.636 160.732 196.957 161.291C195.078 161.577 193.2 161.862 191.322 162.148C190.221 162.315 189.797 162.299 189.51 161.18C189.301 160.366 189.573 159.553 189.774 158.765C190.284 156.764 190.85 154.773 191.411 152.783C191.625 152.024 192.003 148.688 192.745 148.323C194.43 147.494 193.13 152.114 193.005 152.68C192.532 154.813 191.971 156.932 191.718 159.097C193.373 158.961 195.023 158.819 196.671 158.634Z" fill="white" fill-opacity="0.53"/>
<path fill-rule="evenodd" clip-rule="evenodd" d="M241.207 175.621C241.83 177.048 240.795 177.367 239.539 177.862C237.91 178.503 236.308 179.18 234.649 179.757C231.16 180.971 227.645 182.099 224.239 183.503C217.743 186.182 211.159 188.754 204.763 191.623C203.174 192.336 201.583 193.046 199.98 193.732C198.321 194.443 196.419 195.638 194.645 196.043C193.098 196.397 192.936 195.393 193.853 194.467C195.036 193.274 196.863 192.383 198.348 191.553C204.458 188.138 211.127 185.359 217.801 183.009C225.515 180.294 233.25 177.688 241.207 175.621Z" fill="white" fill-opacity="0.53"/>
<path fill-rule="evenodd" clip-rule="evenodd" d="M258.169 94.6723C257.945 90.334 258.581 85.9838 258.202 81.6569C251.677 86.9305 254.892 95.0804 258.645 100.803L258.169 94.6723ZM260.993 94.4244C261.034 96.5435 261.166 98.6616 260.94 100.77C260.703 102.984 261.842 104.124 263.326 105.754C262.065 106.92 259.173 104.201 258.374 103.399C256.73 101.748 255.506 99.5549 254.417 97.5726C252.098 93.3499 250.501 88.8289 252.357 84.1926C253.045 82.4743 253.887 80.1381 255.709 79.1376C257.709 78.0391 259.24 79.5885 260.07 81.1821C262.096 85.0703 260.551 90.2508 260.993 94.4244Z" fill="white" fill-opacity="0.53"/>
<path fill-rule="evenodd" clip-rule="evenodd" d="M330.112 310.074C333.12 310.292 336.084 310.505 339.092 310.679C338.573 306.919 338.054 303.159 337.534 299.398C335.794 299.766 334.053 300.133 332.312 300.5C331.489 300.674 330.227 300.72 329.499 301.094C329.227 301.151 328.954 301.209 328.682 301.267C328.674 301.754 328.669 302.243 328.663 302.731C328.643 304.175 328.597 305.618 328.532 307.06C328.504 307.665 328.273 308.55 328.431 309.149C328.15 309.755 328.329 310.012 328.97 309.922C329.351 309.972 329.731 310.023 330.112 310.074ZM328.041 312.793C325.682 311.722 326.327 308.451 326.331 306.369C326.334 305.044 326.436 303.728 326.474 302.405C326.501 301.496 326.273 300.371 326.616 299.492C327.226 297.93 330.213 297.972 331.748 298.081C332.887 298.162 333.84 298.11 335.007 298.042C335.582 298.008 336.224 298.108 336.789 297.953C336.912 297.92 338.062 297.188 338.011 297.187C340.073 297.259 340.101 301.768 340.235 302.912C340.566 305.733 340.865 308.559 341.135 311.385C341.206 312.133 341.511 312.979 340.732 313.405C340.029 313.791 338.166 313.41 337.389 313.388C334.255 313.302 331.14 312.857 328.041 312.793Z" fill="white" fill-opacity="0.53"/>
<path fill-rule="evenodd" clip-rule="evenodd" d="M475.248 145.227C476.612 146.345 475.956 147.5 475.51 148.897C475.241 149.736 473.766 152.49 474.173 153.274C474.644 154.181 476.854 154.405 477.799 154.691C479.445 155.19 481.098 155.691 482.655 156.394C483.346 156.707 485.839 157.425 486.307 158.007C486.574 158.342 486.672 158.603 486.471 159.034C486.117 159.79 485.613 159.39 484.752 159.228C480.816 158.486 476.913 157.538 473.262 155.974C472.244 158.128 471.383 160.328 470.522 162.538C470.269 163.185 470.029 164.657 469.07 164.762C467.901 164.889 467.885 163.462 467.963 162.692C468.076 161.567 468.715 160.369 469.101 159.304C469.419 158.425 470.536 156.595 470.398 155.69C470.304 155.067 469.888 155.11 469.145 154.865C468.443 154.634 467.741 154.404 467.04 154.17C465.916 153.795 464.797 153.419 463.703 152.975C463.102 152.73 461.846 152.445 461.411 151.939C461.159 151.645 460.878 150.586 461.196 150.294C461.941 149.607 466.891 151.454 467.908 151.706C468.584 151.874 469.262 152.002 469.917 152.221C470.165 152.304 470.459 152.643 470.727 152.656C471.866 152.708 471.956 151.91 472.309 151.054C473.13 149.064 474.02 147.034 475.248 145.227Z" fill="white" fill-opacity="0.53"/>
<path fill-rule="evenodd" clip-rule="evenodd" d="M191.452 184.817C190.845 183.46 197.288 181.821 198.484 181.364C201.403 180.25 204.531 179.576 207.553 178.725C210.526 177.888 213.485 176.987 216.408 176.019C217.313 175.719 223.823 172.829 224.163 173.252C225.292 174.65 211.63 179.042 210.299 179.48C204.118 181.509 197.735 183.067 191.452 184.817Z" fill="white" fill-opacity="0.53"/>
<path fill-rule="evenodd" clip-rule="evenodd" d="M468.562 78.7175C466.892 78.7328 464.483 79.1645 462.95 78.5466C464.821 78.6035 466.691 78.6607 468.562 78.7175Z" fill="white" fill-opacity="0.53"/>
<path fill-rule="evenodd" clip-rule="evenodd" d="M234.24 120.887L230.527 120.875C231.766 120.613 233.004 120.454 234.24 120.887Z" fill="white" fill-opacity="0.53"/>
<path fill-rule="evenodd" clip-rule="evenodd" d="M427.629 119.983C428.505 119.978 429.381 119.974 430.251 119.97C429.373 119.974 428.501 119.978 427.629 119.983Z" fill="white" fill-opacity="0.53"/>
<path fill-rule="evenodd" clip-rule="evenodd" d="M504.19 140.663C504.183 141.517 504.177 142.371 504.169 143.222C504.175 142.367 504.182 141.515 504.19 140.663Z" fill="white" fill-opacity="0.53"/>
<path fill-rule="evenodd" clip-rule="evenodd" d="M331.748 298.081C330.818 298.143 329.888 298.204 328.959 298.265C329.89 298.204 330.819 298.142 331.748 298.081Z" fill="white" fill-opacity="0.53"/>
<path fill-rule="evenodd" clip-rule="evenodd" d="M336.989 135.316C336.044 135.386 335.1 135.456 334.156 135.526C335.101 135.455 336.045 135.386 336.989 135.316Z" fill="white" fill-opacity="0.53"/>
<path fill-rule="evenodd" clip-rule="evenodd" d="M434.725 119.701C435.393 119.7 436.061 119.699 436.724 119.698C436.054 119.7 435.39 119.701 434.725 119.701Z" fill="white" fill-opacity="0.53"/>
<path fill-rule="evenodd" clip-rule="evenodd" d="M300.245 136.982C299.414 137.05 298.583 137.118 297.753 137.187C298.583 137.118 299.414 137.05 300.245 136.982Z" fill="white" fill-opacity="0.53"/>
<path fill-rule="evenodd" clip-rule="evenodd" d="M336.931 82.925C336.101 82.9296 335.27 82.9342 334.439 82.9387C335.268 82.5382 336.099 82.6416 336.931 82.925Z" fill="white" fill-opacity="0.53"/>
<path fill-rule="evenodd" clip-rule="evenodd" d="M185.295 213.925C184.604 213.891 184.041 214.197 183.651 213.596C184.289 213.143 184.657 213.665 185.295 213.925Z" fill="white" fill-opacity="0.53"/>
<path fill-rule="evenodd" clip-rule="evenodd" d="M313.469 163.343L311.312 163.121L313.469 163.343Z" fill="white" fill-opacity="0.53"/>
<path fill-rule="evenodd" clip-rule="evenodd" d="M328.04 312.793C328.517 312.803 328.993 312.812 329.464 312.822C328.986 312.812 328.513 312.802 328.04 312.793Z" fill="white" fill-opacity="0.53"/>
<path fill-rule="evenodd" clip-rule="evenodd" d="M438.725 79.954C437.983 80.0146 437.24 80.0753 436.498 80.1359C437.24 80.0749 437.983 80.0146 438.725 79.954Z" fill="white" fill-opacity="0.53"/>
<path fill-rule="evenodd" clip-rule="evenodd" d="M203.408 285.329C202.694 285.331 201.982 285.334 201.269 285.337C201.982 285.334 202.695 285.331 203.408 285.329Z" fill="white" fill-opacity="0.53"/>
<path fill-rule="evenodd" clip-rule="evenodd" d="M146.078 273.802C145.358 273.803 144.638 273.804 143.919 273.805C144.639 273.804 145.358 273.803 146.078 273.802Z" fill="white" fill-opacity="0.53"/>
<path fill-rule="evenodd" clip-rule="evenodd" d="M327.984 135.857C327.254 135.923 326.523 135.988 325.792 136.054C326.523 135.988 327.254 135.923 327.984 135.857Z" fill="white" fill-opacity="0.53"/>
<path fill-rule="evenodd" clip-rule="evenodd" d="M307.593 136.938C306.874 136.863 306.155 136.787 305.436 136.712C306.149 136.839 306.94 136.337 307.593 136.938Z" fill="white" fill-opacity="0.53"/>
<path fill-rule="evenodd" clip-rule="evenodd" d="M372.717 163.256C373.165 163.209 373.793 163.066 374.255 163.133C374.195 163.373 372.889 163.255 372.717 163.256Z" fill="white" fill-opacity="0.53"/>
<path fill-rule="evenodd" clip-rule="evenodd" d="M327.104 214.686C327.586 214.694 328.069 214.703 328.546 214.71C328.062 214.702 327.583 214.694 327.104 214.686Z" fill="white" fill-opacity="0.53"/>
<path fill-rule="evenodd" clip-rule="evenodd" d="M283.535 162.308C282.831 162.371 282.127 162.433 281.422 162.495C282.127 162.432 282.831 162.371 283.535 162.308Z" fill="white" fill-opacity="0.53"/>
<path fill-rule="evenodd" clip-rule="evenodd" d="M204.663 160.119C205.047 160.129 205.431 160.138 205.81 160.148C205.424 160.138 205.043 160.129 204.663 160.119Z" fill="white" fill-opacity="0.53"/>
<path fill-rule="evenodd" clip-rule="evenodd" d="M308.483 162.792C307.881 162.781 307.278 162.77 306.676 162.759C307.278 162.77 307.881 162.781 308.483 162.792Z" fill="white" fill-opacity="0.53"/>
<path fill-rule="evenodd" clip-rule="evenodd" d="M196.671 158.634C196.062 158.703 195.453 158.771 194.844 158.839C195.454 158.771 196.062 158.702 196.671 158.634Z" fill="white" fill-opacity="0.53"/>
<path fill-rule="evenodd" clip-rule="evenodd" d="M280.225 153.916C280.601 153.93 280.977 153.943 281.348 153.958C280.97 153.945 280.597 153.931 280.225 153.916Z" fill="white" fill-opacity="0.53"/>
<path fill-rule="evenodd" clip-rule="evenodd" d="M308.922 211.599C309.304 211.576 309.686 211.554 310.063 211.53C309.679 211.553 309.301 211.576 308.922 211.599Z" fill="white" fill-opacity="0.53"/>
<path fill-rule="evenodd" clip-rule="evenodd" d="M338.14 166.43C337.526 166.36 336.911 166.291 336.298 166.221C336.912 166.291 337.526 166.36 338.14 166.43Z" fill="white" fill-opacity="0.53"/>
<path fill-rule="evenodd" clip-rule="evenodd" d="M189.912 252.906C190.311 252.901 190.71 252.896 191.104 252.89C190.704 252.895 190.308 252.9 189.912 252.906Z" fill="white" fill-opacity="0.53"/>
<path fill-rule="evenodd" clip-rule="evenodd" d="M157.179 207.738C156.544 207.679 155.909 207.62 155.273 207.562C155.908 207.62 156.543 207.679 157.179 207.738Z" fill="white" fill-opacity="0.53"/>
<path fill-rule="evenodd" clip-rule="evenodd" d="M143.628 273.881C143.004 273.946 142.38 274.012 141.755 274.078C142.38 274.012 143.004 273.946 143.628 273.881Z" fill="white" fill-opacity="0.53"/>
<path fill-rule="evenodd" clip-rule="evenodd" d="M483.885 119.89C483.836 120.382 483.787 120.874 483.737 121.364C483.786 120.872 483.835 120.381 483.885 119.89Z" fill="white" fill-opacity="0.53"/>
<path fill-rule="evenodd" clip-rule="evenodd" d="M207.138 284.837C206.51 284.902 205.882 284.968 205.255 285.034C205.883 284.968 206.511 284.902 207.138 284.837Z" fill="white" fill-opacity="0.53"/>
<path fill-rule="evenodd" clip-rule="evenodd" d="M200.977 285.405C200.342 285.809 199.707 285.832 199.071 285.406C199.706 285.405 200.342 285.405 200.977 285.405Z" fill="white" fill-opacity="0.53"/>
<path fill-rule="evenodd" clip-rule="evenodd" d="M188.929 285.889C188.313 285.889 187.697 285.889 187.081 285.89C187.697 285.889 188.313 285.889 188.929 285.889Z" fill="white" fill-opacity="0.53"/>
<path fill-rule="evenodd" clip-rule="evenodd" d="M260.993 94.4245C260.94 93.9259 260.887 93.4278 260.835 92.9312C260.887 93.4304 260.94 93.9274 260.993 94.4245Z" fill="white" fill-opacity="0.53"/>
<path fill-rule="evenodd" clip-rule="evenodd" d="M328.286 83.2927C327.667 83.3625 327.048 83.432 326.429 83.5014C327.049 83.432 327.668 83.3625 328.286 83.2927Z" fill="white" fill-opacity="0.53"/>
<path fill-rule="evenodd" clip-rule="evenodd" d="M330.481 83.0286C329.851 83.0926 329.222 83.1571 328.593 83.2216C329.222 83.1571 329.851 83.0926 330.481 83.0286Z" fill="white" fill-opacity="0.53"/>
<path fill-rule="evenodd" clip-rule="evenodd" d="M232.756 149.456C233.143 149.45 233.531 149.445 233.913 149.44C233.523 149.445 233.14 149.45 232.756 149.456Z" fill="white" fill-opacity="0.53"/>
<path fill-rule="evenodd" clip-rule="evenodd" d="M288.813 143.935C290.868 143.626 292.922 143.523 294.976 143.934L288.813 143.935Z" fill="white" fill-opacity="0.53"/>
<path fill-rule="evenodd" clip-rule="evenodd" d="M343.61 122.862C344.038 121.844 344.144 121.462 345.188 120.935C344.754 121.924 344.685 122.454 343.61 122.862Z" fill="white" fill-opacity="0.53"/>
<path fill-rule="evenodd" clip-rule="evenodd" d="M393.714 223.65C393.755 224.708 393.796 225.767 393.838 226.825C393.796 225.766 393.755 224.708 393.714 223.65Z" fill="white" fill-opacity="0.53"/>
<path fill-rule="evenodd" clip-rule="evenodd" d="M468.225 81.1631C467.296 81.1822 466.367 81.2016 465.441 81.2207C466.372 81.2016 467.299 81.1822 468.225 81.1631Z" fill="white" fill-opacity="0.53"/>
<path fill-rule="evenodd" clip-rule="evenodd" d="M344.406 242.469C344.438 243.351 344.471 244.234 344.503 245.116C344.47 244.233 344.438 243.351 344.406 242.469Z" fill="white" fill-opacity="0.53"/>
<path fill-rule="evenodd" clip-rule="evenodd" d="M230.507 214.188C231.446 214.194 232.385 214.201 233.324 214.207C232.385 214.201 231.446 214.194 230.507 214.188Z" fill="white" fill-opacity="0.53"/>
<path fill-rule="evenodd" clip-rule="evenodd" d="M310.314 168.847C309.748 168.852 309.183 168.857 308.623 168.863C309.19 168.859 309.752 168.853 310.314 168.847Z" fill="white" fill-opacity="0.53"/>
<path fill-rule="evenodd" clip-rule="evenodd" d="M308.471 140.789C308.006 140.774 307.54 140.76 307.08 140.747C307.547 140.762 308.009 140.775 308.471 140.789Z" fill="white" fill-opacity="0.53"/>
<path fill-rule="evenodd" clip-rule="evenodd" d="M241.94 213.921C242.674 213.856 243.408 213.791 244.142 213.725C243.408 213.791 242.674 213.856 241.94 213.921Z" fill="white" fill-opacity="0.53"/>
<path fill-rule="evenodd" clip-rule="evenodd" d="M225.945 214.222C226.664 214.212 227.383 214.202 228.102 214.192C227.383 214.202 226.664 214.212 225.945 214.222Z" fill="white" fill-opacity="0.53"/>
<path fill-rule="evenodd" clip-rule="evenodd" d="M233.622 214.205C234.367 214.146 235.112 214.087 235.857 214.028C235.112 214.087 234.367 214.146 233.622 214.205Z" fill="white" fill-opacity="0.53"/>
<path fill-rule="evenodd" clip-rule="evenodd" d="M236.338 215.282C235.968 215.28 235.597 215.277 235.232 215.276C235.604 215.278 235.971 215.28 236.338 215.282Z" fill="white" fill-opacity="0.53"/>
<path fill-rule="evenodd" clip-rule="evenodd" d="M393.389 200.111C393.444 199.614 393.5 199.116 393.555 198.62C393.5 199.119 393.444 199.615 393.389 200.111Z" fill="white" fill-opacity="0.53"/>
<path fill-rule="evenodd" clip-rule="evenodd" d="M282.205 149.813C282.672 149.849 283.139 149.885 283.607 149.922C283.085 149.947 282.563 149.971 282.042 149.995C282.045 149.897 282.099 149.837 282.205 149.813Z" fill="white" fill-opacity="0.53"/>
<path fill-rule="evenodd" clip-rule="evenodd" d="M402.196 233.504C402.167 233.051 402.136 232.598 402.108 232.147C402.137 232.601 402.167 233.053 402.196 233.504Z" fill="white" fill-opacity="0.53"/>
<path fill-rule="evenodd" clip-rule="evenodd" d="M290.589 148.084C290.214 148.091 289.838 148.097 289.468 148.104C289.845 148.097 290.217 148.091 290.589 148.084Z" fill="white" fill-opacity="0.53"/>
<path fill-rule="evenodd" clip-rule="evenodd" d="M427.842 205.285C428.467 205.352 429.092 205.419 429.717 205.485C429.092 205.419 428.467 205.352 427.842 205.285Z" fill="white" fill-opacity="0.53"/>
<path fill-rule="evenodd" clip-rule="evenodd" d="M298.034 167.739C297.65 167.745 297.265 167.75 296.885 167.756C297.271 167.751 297.653 167.745 298.034 167.739Z" fill="white" fill-opacity="0.53"/>
<path fill-rule="evenodd" clip-rule="evenodd" d="M275.791 99.1503C276.194 99.3467 275.985 100.21 275.591 100.128C275.658 99.8017 275.724 99.476 275.791 99.1503Z" fill="white" fill-opacity="0.53"/>
<path fill-rule="evenodd" clip-rule="evenodd" d="M483.917 201.784C483.546 201.775 483.175 201.767 482.809 201.758C483.181 201.767 483.549 201.776 483.917 201.784Z" fill="white" fill-opacity="0.53"/>
<path fill-rule="evenodd" clip-rule="evenodd" d="M258.169 94.6724C258.129 93.9114 258.09 93.1509 258.051 92.3922C258.09 93.1539 258.13 93.913 258.169 94.6724Z" fill="white" fill-opacity="0.53"/>
<path fill-rule="evenodd" clip-rule="evenodd" d="M328.399 309.845C328.97 309.921 329.541 309.998 330.112 310.074C329.54 309.998 328.97 309.921 328.399 309.845Z" fill="white" fill-opacity="0.53"/>
<path fill-rule="evenodd" clip-rule="evenodd" d="M324.623 113.952C322.608 114.33 320.54 114.527 318.573 115.084C318.082 115.222 316.471 116.075 315.883 115.851C314.99 115.508 315.442 114.631 315.818 114.162C316.825 112.91 318.625 112.208 320.276 112.224C321.924 112.24 324.187 112.185 324.623 113.952Z" fill="white" fill-opacity="0.53"/>
<path fill-rule="evenodd" clip-rule="evenodd" d="M319.026 117.312C321.244 118.727 322.938 119.425 323.126 116.243C325.53 116.542 324.453 120.071 322.634 120.338C320.654 120.627 319.334 118.824 319.026 117.312Z" fill="white" fill-opacity="0.53"/>
</svg>
